<svg width="500" height="500" viewBox="0 0 500 500" fill="none" xmlns="http://www.w3.org/2000/svg">
<path d="M430.83 216.991C421.676 157.073 384.144 83.459 309.995 75.7552C309.995 75.7552 253.698 68.9075 198.201 79.286C165.264 85.4455 136.383 103.781 118.108 130.134C99.8329 156.487 93.7286 188.621 101.137 219.256C105.949 239.154 109.2 259.748 108.308 280.195C106.755 315.78 107.648 348.996 142.183 370.218C173.018 389.167 211.825 405.879 248.847 408.806C274.008 410.795 302.223 407.576 326.472 401.026C450.053 367.643 439.984 276.909 430.83 216.991Z" fill="#F4F7FA"/>
<path d="M261.88 344.978C251.381 347.885 243.206 335.787 249.822 327.132C251.876 324.445 253.826 321.548 255.622 318.426C268.957 295.241 262.065 280.02 274.074 238.05C281.668 211.512 287.235 193.069 303.271 186.562C315.838 181.463 333.329 184.304 341.84 194.214C348.917 202.453 350.613 216.545 349.785 226.079C349.11 233.849 346.722 239.003 350.008 244.033C353.367 249.173 358.689 248.12 362.03 252.147C368.804 260.312 358.853 279.032 357.245 282.057C339.353 315.712 300.069 331.411 282.85 338.052C277.048 340.29 270.032 342.721 261.88 344.978Z" fill="url(#paint0_linear_94_523)"/>
<mask id="mask0_94_523" style="mask-type:luminance" maskUnits="userSpaceOnUse" x="245" y="184" width="120" height="163">
<path d="M258.503 345.886C248.917 348.382 241.663 337.122 247.961 329.477C250.701 326.15 253.291 322.477 255.621 318.426C268.957 295.241 262.064 280.02 274.074 238.05C281.668 211.512 287.235 193.069 303.271 186.562C315.838 181.463 333.329 184.304 341.84 194.214C348.917 202.453 350.613 216.545 349.785 226.079C349.11 233.849 346.722 239.003 350.008 244.033C353.366 249.173 358.689 248.12 362.03 252.147C368.804 260.312 358.853 279.032 357.244 282.057C339.353 315.711 300.069 331.411 282.85 338.052C276.262 340.594 268.107 343.384 258.503 345.886Z" fill="white"/>
</mask>
<g mask="url(#mask0_94_523)">
<g opacity="0.5">
<path d="M207.582 356.699L207.48 355.792C224.311 353.908 239.288 350.354 251.996 345.227C270.726 337.671 283.951 326.882 291.303 313.158C297.062 302.407 299.123 290.257 301.976 273.442C304.254 260.017 304.657 250.296 305.013 241.72C305.478 230.502 305.846 221.641 310.229 209.77C314.676 197.726 321.916 186.478 331.748 176.338L332.403 176.973C322.66 187.021 315.488 198.162 311.085 210.086C306.752 221.822 306.387 230.62 305.925 241.758C305.567 250.361 305.163 260.113 302.875 273.595C300.116 289.859 297.937 302.706 292.107 313.589C284.652 327.506 271.271 338.436 252.338 346.074C239.553 351.231 224.495 354.806 207.582 356.699Z" fill="white"/>
<path d="M304.009 264.175L303.603 263.858C303.526 263.797 295.761 257.662 289.323 246.402C283.382 236.011 277.374 218.995 282.491 196.942L283.38 197.149C278.33 218.913 284.255 235.7 290.116 245.95C295.634 255.601 302.114 261.415 303.766 262.811C317.067 240.901 333.659 229.278 345.273 223.379C357.956 216.935 367.629 215.732 367.725 215.721L367.833 216.627C367.738 216.638 358.194 217.831 345.647 224.212C334.072 230.099 317.498 241.734 304.275 263.733L304.009 264.175Z" fill="white"/>
<path d="M296.757 300.251L296.643 299.939C296.59 299.791 291.182 284.973 282.854 271.181C274.58 257.478 249.615 247.032 249.363 246.928L249.712 246.085C249.966 246.19 275.205 256.749 283.635 270.709C291.337 283.465 296.554 297.089 297.385 299.314C326.732 297.915 372.119 241.736 372.576 241.167L373.288 241.738C373.172 241.881 361.6 256.257 346.522 270.57C326.228 289.834 309.596 299.816 297.088 300.24L296.757 300.251Z" fill="white"/>
<path d="M274.894 344.904C264.726 344.904 258.227 344.055 258.135 344.043L257.233 343.922L257.869 343.272C267.921 332.987 270.166 320.048 264.542 304.814C260.331 293.41 253.052 284.953 252.979 284.869L253.667 284.271C253.741 284.356 261.13 292.94 265.398 304.498C270.953 319.546 268.793 332.921 259.158 343.243C262.459 343.6 274.515 344.672 290.277 343.347C307.33 341.911 332.333 337.294 354.601 323.446L397.874 296.536L398.356 297.311L355.083 324.221C332.653 338.169 307.489 342.816 290.33 344.258C284.623 344.737 279.399 344.904 274.894 344.904Z" fill="white"/>
</g>
</g>
<path d="M240.562 346.046C255.141 354.586 274.931 363.384 297.463 365.608C303.213 366.175 338.734 369.68 342.807 354.93C344.242 349.734 340.563 346.661 342.359 339.681C344.488 331.409 351.017 330.43 359.242 323.335C364.15 319.102 378.513 306.712 374.173 292.763C371.579 284.427 362.424 275.912 353.308 273.154C339.936 269.108 329.269 278.243 311.487 294.011C295.724 307.989 294.758 313.094 283.231 322.962C274.677 330.285 261.253 339.418 240.562 346.046Z" fill="url(#paint1_linear_94_523)"/>
<mask id="mask1_94_523" style="mask-type:luminance" maskUnits="userSpaceOnUse" x="240" y="272" width="135" height="95">
<path d="M240.562 346.046C255.141 354.586 274.931 363.384 297.463 365.608C303.213 366.175 338.734 369.68 342.807 354.93C344.242 349.734 340.563 346.661 342.359 339.681C344.488 331.409 351.017 330.43 359.242 323.335C364.15 319.102 378.513 306.712 374.173 292.763C371.579 284.427 362.424 275.912 353.308 273.154C339.936 269.108 329.269 278.243 311.487 294.011C295.724 307.989 294.758 313.094 283.231 322.962C274.677 330.285 261.253 339.418 240.562 346.046Z" fill="white"/>
</mask>
<g mask="url(#mask1_94_523)">
<g opacity="0.5">
<path d="M248.055 346.243C238.941 346.243 230.008 344.961 221.288 342.393C204.381 337.414 188.884 327.992 175.226 314.39L175.869 313.744C189.419 327.238 204.786 336.582 221.546 341.518C243.869 348.092 267.639 346.155 292.196 335.761C317.781 324.933 337.809 307.641 350.106 295.041C358.61 286.328 364.632 274.721 368.005 260.543L368.892 260.754C365.481 275.095 359.38 286.846 350.759 295.679C338.404 308.338 318.276 325.714 292.552 336.602C277.377 343.024 262.491 346.243 248.055 346.243Z" fill="white"/>
<path d="M323.172 318.969L323.108 318.564C323.06 318.266 318.595 288.513 337.495 269.444L338.143 270.087C320.768 287.617 323.493 314.401 323.953 318.015C366.494 315.7 379.451 292.517 382.415 285.447C382.498 285.249 382.553 285.127 382.578 285.085L383.364 285.549L382.971 285.317L383.369 285.54C383.348 285.58 383.312 285.668 383.257 285.8C380.231 293.017 366.985 316.735 323.581 318.949L323.172 318.969Z" fill="white"/>
<path d="M334.912 353.246C334.862 353.246 334.812 353.246 334.762 353.246C325.197 353.217 310.104 350.263 292.519 336.357L292.327 336.206L292.347 335.963C292.365 335.735 294.361 312.928 310.292 289.549L326.338 265.999L327.092 266.513L311.045 290.062C296.135 311.945 293.537 333.301 293.279 335.796C302.881 343.35 317.812 352.282 334.764 352.334C334.812 352.334 334.861 352.334 334.909 352.334C344.994 352.334 351.065 349.138 351.125 349.105L351.557 349.909C351.302 350.046 345.22 353.246 334.912 353.246Z" fill="white"/>
</g>
</g>
<path d="M433.032 386.521L74.0342 383.418V392.6C74.0342 395.092 75.6 397.211 77.7206 397.588L179.234 415.668C180.439 415.883 181.661 415.94 182.877 415.838L429.131 395.224C431.329 395.04 433.032 392.914 433.032 390.354V386.521Z" fill="#BFC8D6"/>
<path d="M307.028 210.821V364.42C307.028 366.357 306.323 368.165 305.194 369.507C304.098 370.82 302.589 371.685 300.924 371.809L135.964 383.977L74.46 388.528H74.4507L74.0343 388.537L72.6979 388.617C68.6145 388.918 65.2432 385.711 65.2432 381.47V211.556C65.2432 207.315 68.6653 203.768 72.7487 203.768H300.918C304.285 203.768 307.028 206.987 307.028 210.821Z" fill="#BFC8D6"/>
<path d="M310.677 210.821V364.42C310.677 367.38 309.034 370.023 306.745 371.186C306.712 371.203 306.67 371.22 306.636 371.237C306.418 371.343 306.192 371.44 305.963 371.518C305.912 371.536 305.859 371.555 305.808 371.573C305.767 371.583 305.724 371.597 305.687 371.606C305.52 371.657 305.353 371.694 305.182 371.726C304.979 371.768 304.771 371.795 304.558 371.809L303.401 371.885L139.221 383.966H139.212L76.3833 388.598C75.7776 388.644 75.1856 388.639 74.6216 388.533C74.566 388.523 74.515 388.528 74.4597 388.528H74.4504C74.3116 388.528 74.1271 388.444 73.9883 388.403C71.0563 387.602 68.8926 384.86 68.8926 381.47V211.556C68.8926 207.315 72.3047 203.768 76.3881 203.768H304.558C307.924 203.768 310.677 206.987 310.677 210.821Z" fill="white"/>
<path d="M297.45 360.979L84.932 375.569C81.6093 375.797 78.9092 373.176 78.9092 369.714V220.954C78.9092 217.492 81.6093 214.674 84.932 214.659L297.45 213.743C300.225 213.731 302.47 216.278 302.47 219.431V354.924C302.47 358.078 300.225 360.789 297.45 360.979Z" fill="#D8DEE8"/>
<path d="M198.53 208.525C198.53 210.104 197.356 211.387 195.906 211.392C194.454 211.397 193.275 210.117 193.275 208.535C193.275 206.953 194.454 205.669 195.906 205.668C197.356 205.667 198.53 206.946 198.53 208.525Z" fill="white"/>
<path opacity="0.48" d="M76.3851 388.604L303.403 371.893L304.558 371.808C306.101 371.694 307.505 370.931 308.577 369.774C292.24 368.88 282.094 363.082 275.548 357.092C262.403 345.062 264.683 333.199 250.508 325.29C232.828 315.424 218.927 327.925 205.51 315.591C197.377 308.113 201.37 302.537 191.361 291.363C180.276 278.986 173.059 283.147 161.919 272.008C147.833 257.923 154.878 246.965 142.744 236.853C128.025 224.585 112.15 235.94 98.1383 224.175C92.0947 219.101 88.7785 211.724 87.047 203.878H76.3862C72.3032 203.878 68.9834 207.316 68.9834 211.557V381.47C68.9831 385.711 72.3023 388.904 76.3851 388.604Z" fill="white"/>
<path d="M315.309 370.875L74.0342 388.556L179.234 407.292C180.439 407.507 181.661 407.564 182.877 407.462L433.032 386.521L319.147 370.996C317.873 370.822 316.589 370.782 315.309 370.875Z" fill="url(#paint2_linear_94_523)"/>
<path d="M109.239 388.708L310.108 373.77L372.275 382.176L173.137 398.145L109.239 388.708Z" fill="#D8DEE8"/>
<path opacity="0.3" d="M292.429 203.768V357.14C292.429 358.555 292.146 359.938 291.734 361.247C291.156 363.101 290.164 364.808 288.915 366.274C286.51 369.095 283.027 371.014 279.142 371.31L113.933 383.778L104.19 384.513C101.84 384.693 99.6139 384.369 97.6206 383.639C93.6159 382.182 90.6359 379.088 89.4475 375.139C89.0868 373.96 88.9648 372.707 88.9648 371.393V203.768H292.429Z" fill="#BFC8D6"/>
<path opacity="0.3" d="M339.593 406.849C339.593 407.319 338.409 407.7 336.949 407.7C335.488 407.7 334.305 407.319 334.305 406.849C334.305 406.379 335.489 405.998 336.949 405.998C338.409 405.998 339.593 406.379 339.593 406.849Z" fill="#FF9DDD"/>
<path opacity="0.3" d="M340.129 410.881C341.59 410.881 342.773 410.5 342.773 410.03C342.773 409.56 341.59 409.179 340.129 409.179C338.669 409.179 337.485 409.56 337.485 410.03C337.485 410.5 338.669 410.881 340.129 410.881Z" fill="#FF9DDD"/>
<path opacity="0.3" d="M347.654 407.67C347.654 408.051 346.695 408.359 345.513 408.359C344.331 408.359 343.372 408.05 343.372 407.67C343.372 407.289 344.331 406.981 345.513 406.981C346.696 406.981 347.654 407.289 347.654 407.67Z" fill="#FF9DDD"/>
<path opacity="0.3" d="M261.105 468.867C261.105 469.608 262.972 470.209 265.274 470.209C267.576 470.209 269.443 469.608 269.443 468.867C269.443 468.126 267.576 467.525 265.274 467.525C262.972 467.525 261.105 468.126 261.105 468.867Z" fill="#FF9DDD"/>
<path opacity="0.3" d="M256.09 473.883C256.09 474.624 257.957 475.225 260.259 475.225C262.562 475.225 264.428 474.624 264.428 473.883C264.428 473.142 262.561 472.541 260.259 472.541C257.957 472.541 256.09 473.142 256.09 473.883Z" fill="#FF9DDD"/>
<path opacity="0.3" d="M248.396 470.161C248.396 470.761 249.907 471.247 251.772 471.247C253.636 471.247 255.148 470.761 255.148 470.161C255.148 469.561 253.637 469.075 251.772 469.075C249.907 469.075 248.396 469.561 248.396 470.161Z" fill="#FF9DDD"/>
<path opacity="0.3" d="M462.99 458.533C462.99 459.274 464.857 459.875 467.159 459.875C469.461 459.875 471.328 459.274 471.328 458.533C471.328 457.792 469.461 457.191 467.159 457.191C464.856 457.191 462.99 457.792 462.99 458.533Z" fill="#FF9DDD"/>
<path opacity="0.3" d="M457.975 463.549C457.975 464.29 459.841 464.891 462.144 464.891C464.447 464.891 466.313 464.29 466.313 463.549C466.313 462.808 464.446 462.207 462.144 462.207C459.841 462.207 457.975 462.808 457.975 463.549Z" fill="#FF9DDD"/>
<path opacity="0.3" d="M450.28 459.827C450.28 460.427 451.791 460.913 453.656 460.913C455.52 460.913 457.032 460.427 457.032 459.827C457.032 459.227 455.521 458.741 453.656 458.741C451.791 458.741 450.28 459.227 450.28 459.827Z" fill="#FF9DDD"/>
<path d="M301.633 134.756V290.039C302.804 299.099 295.806 306.453 287.157 306.453H36.1607C27.5107 306.453 20.5137 299.099 20.5137 290.039V134.756C20.5137 125.683 27.5117 118.342 36.1607 118.342H287.157C295.806 118.342 302.804 125.683 301.633 134.756Z" fill="#FFEADC"/>
<path d="M299.291 132.414V287.697C299.291 296.757 292.293 304.111 283.644 304.111H32.648C23.998 304.111 17.001 296.757 17.001 287.697V132.414C17.001 123.341 23.999 116 32.648 116H283.644C292.293 116.001 299.291 123.341 299.291 132.414Z" fill="white"/>
<path d="M299.291 130.963V143.91H17V130.963C17 122.692 23.998 116.001 32.647 116.001H283.643C292.293 116.001 299.291 122.692 299.291 130.963Z" fill="#739299"/>
<path d="M248.584 129.955C248.584 132.988 246.125 135.447 243.092 135.447C240.059 135.447 237.6 132.988 237.6 129.955C237.6 126.922 240.059 124.463 243.092 124.463C246.126 124.464 248.584 126.922 248.584 129.955Z" fill="#F5BB60"/>
<path d="M266.157 129.955C266.157 132.988 263.698 135.447 260.665 135.447C257.632 135.447 255.173 132.988 255.173 129.955C255.173 126.922 257.632 124.463 260.665 124.463C263.699 124.464 266.157 126.922 266.157 129.955Z" fill="#FF7171"/>
<path d="M283.731 129.955C283.731 132.988 281.272 135.447 278.239 135.447C275.206 135.447 272.747 132.988 272.747 129.955C272.747 126.922 275.206 124.463 278.239 124.463C281.272 124.464 283.731 126.922 283.731 129.955Z" fill="#F1C3B5"/>
<path d="M111.04 135.447H34.3073C31.6563 135.447 29.4873 133.278 29.4873 130.627C29.4873 127.976 31.6563 125.807 34.3073 125.807H111.04C113.691 125.807 115.86 127.976 115.86 130.627C115.86 133.278 113.691 135.447 111.04 135.447Z" fill="white"/>
<path d="M255.929 157.672H64.2832V279.156H255.929V157.672Z" fill="#E5D0C3"/>
<path d="M253.98 155.724H62.334V277.208H253.98V155.724Z" fill="#FFF2E9"/>
<path d="M249.432 160.627H66.8809V274.315H249.432V160.627Z" stroke="#739299" stroke-width="0.6496" stroke-miterlimit="10"/>
<path d="M217.447 257.168L201.676 279.282L209.785 277.884L212.669 284.949L222.829 260.979L217.447 257.168Z" fill="#FF7171"/>
<path d="M230.082 257.168L245.852 279.282L237.744 277.884L234.86 284.949L224.7 260.979L230.082 257.168Z" fill="#FF7171"/>
<path d="M227.245 234.64C227.634 236.312 229.757 236.836 230.879 235.536C232.331 233.853 235.059 235.285 234.499 237.436C234.066 239.097 235.703 240.547 237.3 239.918C239.368 239.103 241.118 241.639 239.623 243.283C238.468 244.553 239.243 246.598 240.95 246.782C243.16 247.021 243.531 250.08 241.443 250.841C239.83 251.429 239.566 253.599 240.992 254.556C242.838 255.794 241.745 258.676 239.542 258.379C237.84 258.15 236.598 259.949 237.416 261.459C238.475 263.413 236.168 265.457 234.355 264.17C232.955 263.176 231.019 264.192 231.041 265.909C231.07 268.131 228.078 268.869 227.071 266.888C226.293 265.357 224.106 265.357 223.329 266.888C222.322 268.869 219.33 268.132 219.359 265.909C219.381 264.192 217.445 263.176 216.045 264.17C214.233 265.456 211.926 263.413 212.985 261.459C213.803 259.949 212.561 258.15 210.859 258.379C208.657 258.676 207.564 255.794 209.409 254.556C210.835 253.599 210.571 251.429 208.958 250.841C206.87 250.08 207.241 247.021 209.451 246.782C211.158 246.597 211.933 244.553 210.778 243.283C209.283 241.639 211.033 239.103 213.101 239.918C214.698 240.548 216.335 239.098 215.902 237.436C215.342 235.285 218.071 233.853 219.522 235.536C220.644 236.836 222.767 236.313 223.156 234.64C223.66 232.476 226.741 232.476 227.245 234.64Z" fill="#F5BB60"/>
<path d="M235.93 254.011C237.321 248.089 233.648 242.16 227.726 240.769C221.804 239.378 215.875 243.051 214.484 248.973C213.093 254.895 216.766 260.824 222.688 262.215C228.61 263.607 234.539 259.934 235.93 254.011Z" stroke="white" stroke-width="0.8804" stroke-miterlimit="10"/>
<path d="M125.439 179.66H123.473C123.356 179.095 123.153 178.598 122.862 178.17C122.577 177.742 122.228 177.382 121.816 177.092C121.409 176.796 120.957 176.574 120.46 176.426C119.963 176.278 119.445 176.204 118.906 176.204C117.923 176.204 117.032 176.452 116.234 176.949C115.442 177.446 114.81 178.178 114.34 179.145C113.874 180.112 113.642 181.299 113.642 182.705C113.642 184.111 113.874 185.297 114.34 186.265C114.81 187.232 115.442 187.964 116.234 188.461C117.032 188.957 117.923 189.206 118.906 189.206C119.445 189.206 119.963 189.132 120.46 188.984C120.957 188.836 121.409 188.617 121.816 188.326C122.228 188.03 122.577 187.668 122.862 187.24C123.153 186.806 123.356 186.31 123.473 185.749H125.439C125.291 186.579 125.021 187.322 124.63 187.977C124.239 188.632 123.753 189.19 123.171 189.65C122.59 190.104 121.937 190.451 121.213 190.688C120.494 190.926 119.725 191.045 118.906 191.045C117.521 191.045 116.29 190.707 115.212 190.03C114.133 189.354 113.285 188.392 112.667 187.145C112.048 185.897 111.739 184.417 111.739 182.705C111.739 180.992 112.048 179.513 112.667 178.265C113.285 177.018 114.133 176.056 115.212 175.379C116.29 174.703 117.521 174.365 118.906 174.365C119.725 174.365 120.494 174.483 121.213 174.721C121.937 174.959 122.59 175.308 123.171 175.768C123.753 176.222 124.239 176.777 124.63 177.433C125.021 178.083 125.291 178.825 125.439 179.66ZM128.616 190.823V174.587H138.415V176.331H130.582V181.817H137.908V183.561H130.582V189.079H138.542V190.823H128.616ZM141.959 190.823V174.587H147.445C148.714 174.587 149.755 174.803 150.569 175.237C151.383 175.665 151.985 176.254 152.377 177.005C152.768 177.755 152.963 178.609 152.963 179.565C152.963 180.522 152.768 181.37 152.377 182.11C151.985 182.85 151.386 183.432 150.577 183.854C149.768 184.272 148.735 184.481 147.477 184.481H143.037V182.705H147.414C148.28 182.705 148.978 182.578 149.507 182.324C150.04 182.071 150.426 181.711 150.664 181.246C150.907 180.776 151.029 180.215 151.029 179.565C151.029 178.915 150.907 178.347 150.664 177.861C150.421 177.375 150.032 176.999 149.499 176.735C148.965 176.465 148.259 176.331 147.382 176.331H143.925V190.823H141.959ZM149.602 183.529L153.597 190.823H151.314L147.382 183.529H149.602ZM155.352 176.331V174.587H167.529V176.331H162.423V190.823H160.457V176.331H155.352ZM172.53 174.587V190.823H170.564V174.587H172.53ZM176.472 190.823V174.587H186.208V176.331H178.438V181.817H185.478V183.561H178.438V190.823H176.472ZM191.541 174.587V190.823H189.575V174.587H191.541ZM208.549 179.66H206.583C206.467 179.095 206.263 178.598 205.972 178.17C205.687 177.742 205.338 177.382 204.926 177.092C204.519 176.796 204.067 176.574 203.57 176.426C203.073 176.278 202.555 176.204 202.016 176.204C201.033 176.204 200.143 176.452 199.345 176.949C198.552 177.446 197.92 178.178 197.45 179.145C196.985 180.112 196.752 181.299 196.752 182.705C196.752 184.111 196.985 185.297 197.45 186.265C197.92 187.232 198.552 187.964 199.345 188.461C200.143 188.957 201.033 189.206 202.016 189.206C202.555 189.206 203.073 189.132 203.57 188.984C204.067 188.836 204.519 188.617 204.926 188.326C205.338 188.03 205.687 187.668 205.972 187.24C206.263 186.806 206.467 186.31 206.583 185.749H208.549C208.401 186.579 208.131 187.322 207.74 187.977C207.349 188.632 206.863 189.19 206.282 189.65C205.7 190.104 205.047 190.451 204.323 190.688C203.605 190.926 202.836 191.045 202.016 191.045C200.632 191.045 199.4 190.707 198.322 190.03C197.244 189.354 196.395 188.392 195.777 187.145C195.159 185.897 194.849 184.417 194.849 182.705C194.849 180.992 195.159 179.513 195.777 178.265C196.395 177.018 197.244 176.056 198.322 175.379C199.4 174.703 200.632 174.365 202.016 174.365C202.836 174.365 203.605 174.483 204.323 174.721C205.047 174.959 205.7 175.308 206.282 175.768C206.863 176.222 207.349 176.777 207.74 177.433C208.131 178.083 208.401 178.825 208.549 179.66ZM212.392 190.823H210.331L216.293 174.587H218.322L224.284 190.823H222.223L217.371 177.155H217.244L212.392 190.823ZM213.153 184.481H221.462V186.225H213.153V184.481ZM224.029 176.331V174.587H236.206V176.331H231.101V190.823H229.134V176.331H224.029ZM241.207 174.587V190.823H239.241V174.587H241.207ZM258.849 182.705C258.849 184.417 258.54 185.897 257.921 187.145C257.303 188.392 256.455 189.354 255.376 190.03C254.298 190.707 253.067 191.045 251.682 191.045C250.297 191.045 249.066 190.707 247.987 190.03C246.909 189.354 246.061 188.392 245.442 187.145C244.824 185.897 244.515 184.417 244.515 182.705C244.515 180.992 244.824 179.513 245.442 178.265C246.061 177.018 246.909 176.056 247.987 175.379C249.066 174.703 250.297 174.365 251.682 174.365C253.067 174.365 254.298 174.703 255.376 175.379C256.455 176.056 257.303 177.018 257.921 178.265C258.54 179.513 258.849 180.992 258.849 182.705ZM256.946 182.705C256.946 181.299 256.711 180.112 256.24 179.145C255.775 178.178 255.144 177.446 254.346 176.949C253.553 176.452 252.665 176.204 251.682 176.204C250.699 176.204 249.808 176.452 249.01 176.949C248.217 177.446 247.586 178.178 247.115 179.145C246.65 180.112 246.418 181.299 246.418 182.705C246.418 184.111 246.65 185.297 247.115 186.265C247.586 187.232 248.217 187.964 249.01 188.461C249.808 188.957 250.699 189.206 251.682 189.206C252.665 189.206 253.553 188.957 254.346 188.461C255.144 187.964 255.775 187.232 256.24 186.265C256.711 185.297 256.946 184.111 256.946 182.705ZM275.03 174.587V190.823H273.127L264.28 178.075H264.121V190.823H262.155V174.587H264.058L272.937 187.367H273.096V174.587H275.03Z" fill="#D88C84"/>
<path d="M136.025 260.109H92.5848C92.3828 260.109 92.2168 259.943 92.2168 259.741C92.2168 259.539 92.3828 259.373 92.5848 259.373H136.025C136.227 259.373 136.393 259.539 136.393 259.741C136.393 259.943 136.228 260.109 136.025 260.109Z" fill="#739299"/>
<path d="M201.963 260.109H158.523C158.321 260.109 158.155 259.943 158.155 259.741C158.155 259.539 158.321 259.373 158.523 259.373H201.963C202.165 259.373 202.331 259.539 202.331 259.741C202.331 259.943 202.166 260.109 201.963 260.109Z" fill="#739299"/>
<path d="M89.9346 217.202H230.862" stroke="#739299" stroke-width="1.1428" stroke-miterlimit="10" stroke-linecap="round" stroke-linejoin="round"/>
<path d="M125.167 207.341H195.631" stroke="#739299" stroke-width="1.1428" stroke-miterlimit="10" stroke-linecap="round" stroke-linejoin="round"/>
<path d="M89.9346 222.848H230.862" stroke="#739299" stroke-width="1.1428" stroke-miterlimit="10" stroke-linecap="round" stroke-linejoin="round"/>
<path d="M89.9346 228.491H230.862" stroke="#739299" stroke-width="1.1428" stroke-miterlimit="10" stroke-linecap="round" stroke-linejoin="round"/>
<path d="M206.482 295.73H111.779C108.811 295.73 106.383 293.302 106.383 290.334C106.383 287.366 108.811 284.938 111.779 284.938H206.482C209.45 284.938 211.878 287.366 211.878 290.334C211.879 293.302 209.45 295.73 206.482 295.73Z" fill="#739299"/>
<path d="M91.2362 141.751L95.7352 155.053C95.7352 155.053 90.9542 157.136 88.4042 157.88C85.8552 158.628 82.1662 162.385 80.2832 163.195C79.8762 163.369 79.4882 163.519 79.0902 163.64C77.3682 164.172 75.5202 164.248 71.5112 164.178C66.5832 164.094 61.8732 166.738 61.8732 166.738L56.9502 152.181C56.9502 152.181 62.8442 148.903 73.4542 145.081C84.0672 141.259 91.2362 141.751 91.2362 141.751Z" fill="#21386E"/>
<path opacity="0.21" d="M92.0896 144.274L92.6766 146.009C92.0696 146.904 91.2706 147.677 90.4706 148.419C87.4936 151.158 84.2876 153.641 80.8896 155.837C79.7046 156.603 78.4826 157.341 77.1436 157.789L77.1146 157.799C76.0466 158.156 74.9276 158.319 73.8076 158.469C70.6536 158.887 67.4646 159.188 64.2796 159.004C62.7226 158.914 61.1606 158.715 59.6456 158.331C59.3056 158.245 59.0736 158.14 58.9266 158.03C58.7236 157.875 58.6886 157.704 58.7556 157.525C58.9536 157.028 60.0036 156.499 60.6666 156.271C65.4166 154.61 70.1446 152.887 74.8476 151.1C80.4486 148.982 86.0186 146.773 91.5516 144.482C91.7286 144.409 91.9086 144.335 92.0896 144.274Z" fill="#000061"/>
<path opacity="0.09" d="M91.4629 142.424L95.7339 155.054C95.7339 155.054 90.9529 157.137 88.4029 157.881C85.8539 158.629 82.1649 162.386 80.2819 163.196C79.8749 163.37 79.4869 163.52 79.0889 163.641L73.4619 147.004L91.4629 142.424Z" fill="#000061"/>
<path opacity="0.31" d="M91.4629 142.424L95.7339 155.054C95.7339 155.054 90.9529 157.137 88.4029 157.881C85.8539 158.629 82.1649 162.386 80.2819 163.196C79.8749 163.37 79.4869 163.52 79.0889 163.641L73.4619 147.004L91.4629 142.424Z" fill="#000061"/>
<path d="M42.5207 157.362L70.1957 135.447L102.457 137.301C103.009 137.333 103.213 138.041 102.763 138.362L76.4367 157.145L42.8337 158.217C42.3717 158.231 42.1587 157.648 42.5207 157.362Z" fill="#21386E"/>
<path opacity="0.31" d="M75.0203 144.941C75.1763 145.404 74.6553 145.998 73.8553 146.269C73.0553 146.54 72.2793 146.384 72.1233 145.921C71.9673 145.458 72.4883 144.864 73.2883 144.593C74.0883 144.322 74.8643 144.478 75.0203 144.941Z" fill="#000061"/>
<path d="M73.5942 145.068C72.4552 142.87 69.9462 141.558 67.4702 141.54C64.9942 141.523 62.6002 142.678 60.8042 144.382C59.0082 146.086 57.7662 148.304 56.8832 150.617C54.8862 155.848 54.6412 161.56 54.4482 167.155C54.1512 175.778 53.9272 184.451 55.1032 192.999" stroke="#F5BB60" stroke-width="0.5477" stroke-miterlimit="10" stroke-linecap="round" stroke-linejoin="round"/>
<path d="M54.6466 188.949C54.5676 188.901 52.1436 192.022 52.6866 196.73L57.6746 196.217C57.6746 196.217 58.5176 191.283 54.6466 188.949Z" fill="#F5BB60"/>
<path opacity="0.63" d="M393.485 447.447C421.715 447.447 444.6 445.585 444.6 443.288C444.6 440.991 421.715 439.129 393.485 439.129C365.255 439.129 342.37 440.991 342.37 443.288C342.37 445.585 365.255 447.447 393.485 447.447Z" fill="#FF9DDD"/>
<path d="M436.079 443.289H430.881C428.537 443.289 426.618 441.371 426.618 439.026C426.618 436.681 428.536 434.763 430.881 434.763H436.079C438.423 434.763 440.342 436.681 440.342 439.026C440.341 441.371 438.423 443.289 436.079 443.289Z" fill="#D88C84"/>
<path d="M433.777 434.764H351.736V443.289H433.777V434.764Z" fill="#F5BB60"/>
<path d="M433.777 434.764H430.881V443.289H433.777V434.764Z" fill="#739299"/>
<path d="M351.74 434.761V443.288L345.73 440.735L342.92 439.55L345.278 438.267L351.74 434.761Z" fill="#F9E8FA"/>
<path d="M345.73 440.735L342.92 439.55L345.278 438.267C345.84 439.257 345.852 440.112 345.73 440.735Z" fill="#739299"/>
<path d="M351.74 436.322H430.881" stroke="#739299" stroke-width="0.3054" stroke-miterlimit="10"/>
<path d="M351.74 440.734H430.881" stroke="#739299" stroke-width="0.3054" stroke-miterlimit="10"/>
<path opacity="0.63" d="M229.618 459.544C272.575 459.544 307.398 456.131 307.398 451.921C307.398 447.711 272.575 444.298 229.618 444.298C186.661 444.298 151.838 447.711 151.838 451.921C151.838 456.131 186.661 459.544 229.618 459.544Z" fill="#FF9DDD"/>
<path d="M306.997 419.839C306.997 420.261 306.643 420.615 306.221 420.615H194.139C187.575 420.615 182.255 415.295 182.255 408.719V399.974C182.255 393.398 187.586 388.067 194.162 388.067H305.924C306.518 388.067 306.997 388.546 306.997 389.129C306.997 389.723 306.518 390.202 305.924 390.202H293.389C292.807 390.202 292.327 390.681 292.327 391.264V417.989C292.327 418.583 292.806 419.062 293.389 419.062H306.22C306.643 419.062 306.997 419.416 306.997 419.839Z" fill="#D88C84"/>
<path d="M305.444 390.203V419.062H216.549C213.444 419.062 210.67 417.635 208.855 415.398C207.474 413.686 206.64 411.528 206.64 409.154V400.112C206.64 397.212 207.896 394.587 209.882 392.772L209.996 392.681C210.257 392.451 210.533 392.239 210.817 392.037L210.841 392.019L210.842 392.021C212.456 390.88 214.423 390.204 216.549 390.204L305.444 390.203Z" fill="white"/>
<path d="M306.997 419.839C306.997 420.261 306.643 420.615 306.221 420.615H210.647C206.275 419.839 202.336 417.167 202.336 403.035C202.336 388.891 212.245 388.069 212.245 388.069H305.924C306.518 388.069 306.997 388.548 306.997 389.131C306.997 389.725 306.518 390.204 305.924 390.204H293.389C292.807 390.204 292.327 390.683 292.327 391.266V417.991C292.327 418.585 292.806 419.064 293.389 419.064H306.22C306.643 419.062 306.997 419.416 306.997 419.839Z" fill="#D88C84"/>
<path opacity="0.41" d="M306.997 419.839C306.997 420.261 306.643 420.615 306.221 420.615H210.647C206.275 419.839 202.336 417.167 202.336 403.035C202.336 388.891 212.245 388.069 212.245 388.069H305.924C306.518 388.069 306.997 388.548 306.997 389.131C306.997 389.725 306.518 390.204 305.924 390.204H293.389C292.807 390.204 292.327 390.683 292.327 391.266V417.991C292.327 418.585 292.806 419.064 293.389 419.064H306.22C306.643 419.062 306.997 419.416 306.997 419.839Z" fill="#D88C84"/>
<path d="M306.997 419.84C306.997 420.262 306.643 420.616 306.221 420.616H304.018C303.595 420.616 303.242 420.262 303.242 419.84C303.242 419.417 303.596 419.062 304.018 419.062H306.221C306.643 419.062 306.997 419.417 306.997 419.84Z" fill="#D88C84"/>
<g opacity="0.44">
<path d="M306.997 419.839C306.997 420.261 306.643 420.615 306.221 420.615H210.647C206.275 419.839 202.336 417.167 202.336 403.035C202.336 388.891 212.245 388.069 212.245 388.069H305.924C306.518 388.069 306.997 388.548 306.997 389.131C306.997 389.725 306.518 390.204 305.924 390.204H293.389C292.807 390.204 292.327 390.683 292.327 391.266V417.991C292.327 418.585 292.806 419.064 293.389 419.064H306.22C306.643 419.062 306.997 419.416 306.997 419.839Z" fill="#D88C84"/>
<path opacity="0.41" d="M306.997 419.839C306.997 420.261 306.643 420.615 306.221 420.615H210.647C206.275 419.839 202.336 417.167 202.336 403.035C202.336 388.891 212.245 388.069 212.245 388.069H305.924C306.518 388.069 306.997 388.548 306.997 389.131C306.997 389.725 306.518 390.204 305.924 390.204H293.389C292.807 390.204 292.327 390.683 292.327 391.266V417.991C292.327 418.585 292.806 419.064 293.389 419.064H306.22C306.643 419.062 306.997 419.416 306.997 419.839Z" fill="#D88C84"/>
<path opacity="0.41" d="M306.997 419.84C306.997 420.262 306.643 420.616 306.221 420.616H304.018C303.595 420.616 303.242 420.262 303.242 419.84C303.242 419.417 303.596 419.062 304.018 419.062H306.221C306.643 419.062 306.997 419.417 306.997 419.84Z" fill="#D88C84"/>
</g>
<path d="M305.444 390.203V419.062H216.549C214.003 419.062 211.674 418.103 209.916 416.505C209.802 416.414 209.688 416.311 209.585 416.208C209.322 415.957 209.083 415.683 208.855 415.398C208.661 415.147 208.467 414.884 208.296 414.622C208.113 414.359 207.954 414.086 207.805 413.8C207.748 413.697 207.691 413.606 207.645 413.503C207.633 413.48 207.622 413.469 207.622 413.446C207.554 413.298 207.485 413.161 207.428 413.012C207.302 412.738 207.2 412.441 207.108 412.144C206.994 411.802 206.903 411.447 206.834 411.094C206.811 411.003 206.788 410.9 206.777 410.797C206.686 410.261 206.64 409.713 206.64 409.153V399.986C206.651 399.541 206.686 399.107 206.743 398.685C206.766 398.537 206.789 398.388 206.823 398.24C206.857 398.012 206.914 397.783 206.971 397.567C206.994 397.476 207.028 397.373 207.051 397.282C207.119 397.065 207.188 396.86 207.268 396.654C207.336 396.437 207.428 396.231 207.519 396.038C207.702 395.638 207.907 395.25 208.135 394.873C208.192 394.77 208.261 394.679 208.33 394.576C208.444 394.405 208.558 394.245 208.684 394.085C208.787 393.96 208.889 393.823 208.992 393.697C209.266 393.366 209.563 393.058 209.883 392.772L209.997 392.681L210.648 392.167L210.842 392.019C210.922 391.962 210.99 391.916 211.07 391.871C212.634 390.821 214.529 390.204 216.55 390.204L305.444 390.203Z" fill="white"/>
<path d="M305.443 391.87V392.167H210.646C210.703 392.121 210.76 392.076 210.817 392.042L210.84 392.019C210.92 391.962 210.988 391.916 211.068 391.871H305.443V391.87Z" fill="#B19EDA"/>
<path d="M305.444 394.575V394.872H208.135C208.204 394.769 208.261 394.678 208.33 394.575H305.444Z" fill="#B19EDA"/>
<path d="M305.444 397.281V397.566H206.971C206.994 397.475 207.028 397.372 207.051 397.281H305.444Z" fill="#B19EDA"/>
<path d="M305.444 399.986H206.64V400.272H305.444V399.986Z" fill="#B19EDA"/>
<path d="M305.444 402.692H206.64V402.978H305.444V402.692Z" fill="#B19EDA"/>
<path d="M305.444 405.397H206.64V405.682H305.444V405.397Z" fill="#B19EDA"/>
<path d="M305.444 408.104H206.64V408.389H305.444V408.104Z" fill="#B19EDA"/>
<path d="M305.444 410.797H206.64V411.094H305.444V410.797Z" fill="#B19EDA"/>
<path d="M305.444 413.503V413.8H207.804C207.747 413.697 207.69 413.606 207.644 413.503H305.444Z" fill="#B19EDA"/>
<path d="M305.444 416.208V416.505H209.916C209.802 416.414 209.688 416.311 209.585 416.208H305.444Z" fill="#B19EDA"/>
<path d="M212.405 405.398C212.405 405.501 212.405 405.592 212.393 405.683C212.347 406.505 212.267 407.315 212.142 408.103C212.131 408.206 212.119 408.297 212.096 408.388C211.959 409.222 211.765 410.032 211.514 410.797C211.491 410.9 211.457 411.003 211.422 411.094C211.137 411.95 210.783 412.761 210.326 413.503C210.269 413.606 210.212 413.697 210.143 413.8C209.778 414.382 209.344 414.919 208.853 415.398C208.659 415.147 208.465 414.884 208.294 414.622C208.111 414.359 207.952 414.086 207.803 413.8C207.746 413.697 207.689 413.606 207.643 413.503C207.631 413.48 207.62 413.469 207.62 413.446C207.552 413.298 207.483 413.161 207.426 413.012C207.3 412.738 207.198 412.441 207.106 412.144C206.992 411.802 206.901 411.447 206.832 411.094C206.809 411.003 206.786 410.9 206.775 410.797C206.684 410.261 206.638 409.713 206.638 409.153V399.986C206.649 399.541 206.684 399.107 206.741 398.685C206.764 398.537 206.787 398.388 206.821 398.24C206.855 398.012 206.912 397.783 206.969 397.567C206.992 397.476 207.026 397.373 207.049 397.282C207.117 397.065 207.186 396.86 207.266 396.654C207.334 396.437 207.426 396.231 207.517 396.038C207.7 395.638 207.905 395.25 208.133 394.873C208.19 394.77 208.259 394.679 208.328 394.576C208.442 394.405 208.556 394.245 208.682 394.085C208.785 393.96 208.887 393.823 208.99 393.697C209.264 393.366 209.561 393.058 209.881 392.772L209.995 392.681L210.646 392.167L210.84 392.019C210.84 392.019 210.851 392.064 210.874 392.167C210.965 392.498 211.182 393.354 211.433 394.576C211.456 394.679 211.478 394.77 211.49 394.873C211.638 395.581 211.787 396.391 211.912 397.282C211.935 397.373 211.946 397.465 211.957 397.567C212.071 398.332 212.174 399.142 212.254 399.987C212.265 400.09 212.277 400.182 212.277 400.273C212.345 401.061 212.403 401.871 212.425 402.693C212.437 402.784 212.437 402.876 212.425 402.979C212.45 403.777 212.45 404.588 212.405 405.398Z" fill="#241A14"/>
<path d="M227.914 397.238H237.415V411.445L232.665 408.919L227.914 410.766V397.238Z" fill="#F5BB60"/>
<path d="M287.868 452.697C287.868 453.119 287.514 453.473 287.092 453.473H175.01C168.446 453.473 163.126 448.153 163.126 441.578V432.833C163.126 426.257 168.457 420.926 175.032 420.926H286.794C287.388 420.926 287.867 421.405 287.867 421.988C287.867 422.582 287.388 423.061 286.794 423.061H274.259C273.677 423.061 273.197 423.54 273.197 424.123V450.848C273.197 451.442 273.676 451.921 274.259 451.921H287.09C287.514 451.921 287.868 452.275 287.868 452.697Z" fill="#21386E"/>
<path d="M286.315 423.061V451.92H197.42C194.315 451.92 191.541 450.493 189.725 448.256C188.344 446.544 187.511 444.386 187.511 442.012V432.97C187.511 430.07 188.767 427.445 190.753 425.63L190.867 425.539C191.128 425.309 191.404 425.097 191.688 424.895L191.711 424.876L191.712 424.878C193.326 423.737 195.293 423.061 197.419 423.061H286.315Z" fill="white"/>
<path d="M287.868 452.697C287.868 453.119 287.514 453.473 287.092 453.473H191.518C187.146 452.697 183.207 450.025 183.207 435.893C183.207 421.749 193.116 420.927 193.116 420.927H286.795C287.389 420.927 287.868 421.406 287.868 421.989C287.868 422.583 287.389 423.062 286.795 423.062H274.26C273.678 423.062 273.198 423.541 273.198 424.124V450.849C273.198 451.443 273.677 451.922 274.26 451.922H287.091C287.514 451.921 287.868 452.275 287.868 452.697Z" fill="#06A6A4"/>
<path d="M287.868 452.697C287.868 453.119 287.514 453.473 287.092 453.473H284.889C284.466 453.473 284.113 453.119 284.113 452.697C284.113 452.274 284.467 451.92 284.889 451.92H287.092C287.514 451.921 287.868 452.275 287.868 452.697Z" fill="#00CCBE"/>
<path d="M287.868 452.697C287.868 453.119 287.514 453.473 287.092 453.473H284.889C284.466 453.473 284.113 453.119 284.113 452.697C284.113 452.274 284.467 451.92 284.889 451.92H287.092C287.514 451.921 287.868 452.275 287.868 452.697Z" fill="#0397C7"/>
<path d="M286.315 423.061V451.92H197.42C194.874 451.92 192.545 450.961 190.787 449.363C190.673 449.272 190.559 449.169 190.456 449.066C190.193 448.815 189.954 448.541 189.725 448.256C189.531 448.005 189.337 447.742 189.166 447.48C188.983 447.217 188.824 446.943 188.675 446.658C188.618 446.555 188.561 446.464 188.515 446.361C188.503 446.338 188.492 446.327 188.492 446.304C188.424 446.156 188.355 446.019 188.298 445.87C188.172 445.596 188.07 445.299 187.978 445.002C187.864 444.659 187.773 444.305 187.704 443.951C187.681 443.86 187.659 443.757 187.647 443.654C187.556 443.117 187.51 442.569 187.51 442.01V432.843C187.522 432.398 187.556 431.964 187.613 431.542C187.636 431.394 187.659 431.245 187.693 431.097C187.727 430.869 187.784 430.64 187.841 430.424C187.864 430.333 187.898 430.23 187.921 430.139C187.989 429.922 188.058 429.717 188.138 429.511C188.206 429.294 188.298 429.088 188.389 428.894C188.572 428.494 188.777 428.106 189.005 427.729C189.062 427.626 189.131 427.535 189.199 427.432C189.313 427.261 189.427 427.101 189.553 426.941C189.656 426.816 189.758 426.679 189.861 426.553C190.135 426.222 190.432 425.914 190.752 425.628L190.866 425.537L191.517 425.023L191.711 424.875C191.791 424.818 191.859 424.772 191.939 424.727C193.503 423.677 195.398 423.06 197.419 423.06H286.315V423.061Z" fill="white"/>
<path d="M286.315 424.728V425.025H191.517C191.574 424.979 191.631 424.934 191.688 424.9L191.711 424.877C191.791 424.82 191.859 424.774 191.939 424.729H286.315V424.728Z" fill="#B19EDA"/>
<path d="M286.315 427.434V427.731H189.006C189.075 427.628 189.132 427.537 189.2 427.434H286.315Z" fill="#B19EDA"/>
<path d="M286.315 430.139V430.424H187.841C187.864 430.333 187.898 430.23 187.921 430.139H286.315Z" fill="#B19EDA"/>
<path d="M286.315 432.845H187.511V433.131H286.315V432.845Z" fill="#B19EDA"/>
<path d="M286.315 435.55H187.511V435.836H286.315V435.55Z" fill="#B19EDA"/>
<path d="M286.315 438.256H187.511V438.541H286.315V438.256Z" fill="#B19EDA"/>
<path d="M286.315 440.962H187.511V441.247H286.315V440.962Z" fill="#B19EDA"/>
<path d="M286.315 443.655H187.511V443.952H286.315V443.655Z" fill="#B19EDA"/>
<path d="M286.315 446.36V446.657H188.675C188.618 446.554 188.561 446.463 188.515 446.36H286.315Z" fill="#B19EDA"/>
<path d="M286.315 449.066V449.363H190.787C190.673 449.272 190.559 449.169 190.456 449.066H286.315Z" fill="#B19EDA"/>
<path d="M193.276 438.256C193.276 438.359 193.276 438.45 193.265 438.541C193.219 439.363 193.139 440.173 193.014 440.961C193.003 441.064 192.991 441.155 192.968 441.246C192.831 442.08 192.637 442.89 192.386 443.655C192.363 443.758 192.329 443.86 192.294 443.952C192.009 444.808 191.655 445.619 191.198 446.361C191.141 446.464 191.084 446.555 191.015 446.658C190.65 447.24 190.216 447.777 189.725 448.256C189.531 448.005 189.337 447.742 189.166 447.48C188.983 447.217 188.824 446.943 188.675 446.658C188.618 446.555 188.561 446.464 188.515 446.361C188.503 446.338 188.492 446.327 188.492 446.304C188.424 446.156 188.355 446.019 188.298 445.87C188.172 445.596 188.07 445.299 187.978 445.002C187.864 444.659 187.773 444.305 187.704 443.951C187.681 443.86 187.659 443.757 187.647 443.654C187.556 443.117 187.51 442.569 187.51 442.01V432.843C187.522 432.398 187.556 431.964 187.613 431.542C187.636 431.394 187.659 431.245 187.693 431.097C187.727 430.869 187.784 430.64 187.841 430.424C187.864 430.333 187.898 430.23 187.921 430.139C187.989 429.922 188.058 429.717 188.138 429.511C188.206 429.294 188.298 429.088 188.389 428.894C188.572 428.494 188.777 428.106 189.005 427.729C189.062 427.626 189.131 427.535 189.199 427.432C189.313 427.261 189.427 427.101 189.553 426.941C189.656 426.816 189.758 426.679 189.861 426.553C190.135 426.222 190.432 425.914 190.752 425.628L190.866 425.537L191.517 425.023L191.711 424.875C191.711 424.875 191.722 424.92 191.746 425.023C191.837 425.354 192.054 426.21 192.305 427.432C192.328 427.535 192.35 427.626 192.362 427.729C192.51 428.437 192.659 429.247 192.784 430.138C192.807 430.229 192.818 430.321 192.83 430.423C192.944 431.188 193.047 431.998 193.127 432.843C193.138 432.946 193.15 433.038 193.15 433.129C193.219 433.916 193.276 434.727 193.298 435.549C193.31 435.641 193.31 435.732 193.298 435.835C193.321 436.635 193.321 437.446 193.276 438.256Z" fill="#252420"/>
<path d="M208.785 432.857H218.618V447.064L213.702 444.538L208.785 446.385V432.857Z" fill="#D88C84"/>
<path opacity="0.63" d="M82.8698 458.947C96.7156 458.947 107.94 457.118 107.94 454.862C107.94 452.606 96.7156 450.777 82.8698 450.777C69.024 450.777 57.7998 452.606 57.7998 454.862C57.7998 457.118 69.024 458.947 82.8698 458.947Z" fill="#FF9DDD"/>
<path d="M80.6154 423.078C78.0064 413.603 75.7984 404 73.8024 394.38C70.4654 378.305 67.1484 361.485 67.8274 344.989C68.0214 340.286 68.4664 335.499 70.7774 331.301C73.4274 326.484 76.2774 337.071 76.7264 338.574C78.8674 345.738 79.9504 353.332 80.6164 360.766C83.4914 392.881 80.6154 423.078 80.6154 423.078Z" fill="#739299"/>
<path d="M71.9053 330.054L80.7293 421.762" stroke="#241A14" stroke-width="0.1767" stroke-miterlimit="10" stroke-linecap="round" stroke-linejoin="round"/>
<path d="M84.9603 419.181C84.0373 409.397 83.5313 399.556 83.2363 389.736C82.7433 373.326 82.3983 356.185 85.9333 340.058C86.9413 335.46 88.2113 330.823 91.2163 327.09C94.6633 322.807 95.6303 333.728 95.8113 335.287C96.6753 342.714 96.4223 350.381 95.7863 357.818C93.0383 389.943 84.9603 419.181 84.9603 419.181Z" fill="#739299"/>
<path d="M92.5448 326.058L85.3018 417.904" stroke="#241A14" stroke-width="0.1767" stroke-miterlimit="10" stroke-linecap="round" stroke-linejoin="round"/>
<path d="M86.6201 422.545C87.9121 412.803 89.6251 403.099 91.5381 393.462C94.7341 377.359 98.2391 360.577 105.298 345.651C107.31 341.396 109.588 337.162 113.352 334.197C117.671 330.795 116.166 341.656 115.994 343.215C115.172 350.646 113.207 358.062 110.921 365.167C101.045 395.861 86.6201 422.545 86.6201 422.545Z" fill="#739299"/>
<path d="M114.878 333.49L87.2393 421.377" stroke="#241A14" stroke-width="0.1767" stroke-miterlimit="10" stroke-linecap="round" stroke-linejoin="round"/>
<path d="M102.782 439.352C102.747 439.719 102.683 440.087 102.612 440.454V440.468C101.425 446.594 97.0863 451.647 91.2993 453.781C89.3983 454.481 87.3353 454.862 85.1723 454.862H83.4123C82.2463 454.862 81.1083 454.756 79.9993 454.537H79.9923C78.4663 454.24 77.0243 453.753 75.6673 453.096C75.6673 453.096 75.6673 453.096 75.6463 453.096C75.2643 452.891 74.8973 452.693 74.5303 452.46H74.5163C71.3153 450.616 68.7853 447.817 67.2523 444.447V444.433C67.1043 444.136 66.9693 443.818 66.8563 443.5C66.6793 443.048 66.5173 442.588 66.3833 442.115C65.7193 439.896 65.4863 437.515 65.7753 435.056L65.8243 434.604L65.9233 433.756L66.7853 426.266L67.2513 422.182L67.3503 421.334L68.9823 407.328L69.0883 406.374L70.0213 398.382H100.067L100.3 401.428L100.364 402.333L101.078 411.922L101.149 412.756L101.502 417.505L102.279 427.864L102.343 428.698L102.682 433.213L102.88 435.771C102.966 436.992 102.931 438.186 102.782 439.352Z" fill="#BB5646"/>
<path d="M82.8691 398.381C82.8551 398.459 82.8411 398.544 82.8271 398.621C82.3471 401.087 80.7921 403.228 78.9481 404.931C78.0291 405.786 77.0261 406.563 76.3331 407.609C73.8741 411.34 76.4811 416.407 75.4921 420.767C74.7431 424.067 71.5211 426.766 68.1501 426.477C67.6701 426.435 67.2101 426.364 66.7861 426.265L67.2521 422.181L67.3511 421.333L68.9831 407.327L69.0891 406.373L70.0221 398.381H82.8691Z" fill="#D88C84"/>
<path d="M81.5808 419.978C81.5738 421.349 81.8298 422.713 81.7868 424.083C81.7398 425.537 81.3578 426.962 81.2878 428.415C81.2178 429.868 81.5257 431.448 82.6007 432.426C83.9467 433.65 86.1428 433.526 87.6748 432.544C89.2068 431.562 90.1798 429.912 90.8898 428.237C92.1578 425.243 92.7567 421.969 92.6307 418.72C92.5547 416.761 92.1997 414.762 91.1838 413.085C89.8098 410.817 87.0997 409.015 85.0477 411.198C82.9577 413.421 81.5958 416.951 81.5808 419.978Z" fill="#D88C84"/>
<path d="M80.8558 452.729C80.7638 453.407 80.4458 454.022 80.0008 454.538H79.9938C78.4678 454.241 77.0258 453.754 75.6688 453.097C75.6688 453.097 75.6688 453.097 75.6478 453.097C75.2658 452.892 74.8988 452.694 74.5318 452.461H74.5178C71.3168 450.617 68.7868 447.818 67.2538 444.448V444.434C67.1058 444.137 66.9708 443.819 66.8578 443.501C66.6808 443.049 66.5188 442.589 66.3848 442.116C67.0418 440.929 68.2078 440.067 70.1158 439.756C71.3378 439.558 72.6878 439.417 73.7478 440.074C74.4618 440.519 74.9348 441.268 75.3728 441.989C76.7648 444.25 78.1498 446.511 79.5418 448.766C80.2838 449.98 81.0538 451.322 80.8558 452.729Z" fill="#D88C84"/>
<path d="M102.783 439.352C102.748 439.719 102.684 440.087 102.613 440.454V440.468C101.426 446.594 97.0868 451.647 91.2998 453.781C90.4448 453.498 89.7668 452.933 89.6608 452.064C89.6118 451.64 89.7178 451.223 89.8158 450.806C90.1408 449.506 90.4588 448.199 90.7838 446.891C91.3558 444.559 91.9568 442.185 93.2148 440.136C95.0238 437.21 98.0338 435.218 101.052 433.691C101.653 433.38 102.197 433.232 102.684 433.211L102.882 435.769C102.967 436.992 102.932 438.186 102.783 439.352Z" fill="#D88C84"/>
<path d="M101.503 417.503C100.662 417.1 100.012 416.288 99.539 415.454C98.578 413.765 98.0479 411.878 97.5319 410.006C97.1219 408.529 96.712 407.059 96.302 405.582C95.998 404.48 95.687 403.37 95.581 402.225C95.489 401.215 95.5669 399.731 95.9479 398.381H100.068L100.301 401.427L100.365 402.332L101.079 411.921L101.15 412.755L101.503 417.503Z" fill="#D88C84"/>
<path opacity="0.63" d="M413.406 425.628C431.748 425.628 446.617 423.339 446.617 420.514C446.617 417.69 431.748 415.4 413.406 415.4C395.064 415.4 380.195 417.69 380.195 420.514C380.195 423.339 395.064 425.628 413.406 425.628Z" fill="#FF9DDD"/>
<path d="M440.331 362.58C440.331 364.68 428.284 366.383 413.423 366.383C398.562 366.383 386.515 364.68 386.515 362.58C386.515 360.48 398.562 358.777 413.423 358.777C428.284 358.778 440.331 360.48 440.331 362.58Z" fill="#BB5646"/>
<path d="M438.813 364.346C438.813 366.446 427.333 368.149 413.173 368.149C399.012 368.149 387.533 366.446 387.533 364.346C387.533 362.246 399.013 360.543 413.173 360.543C427.334 360.543 438.813 362.246 438.813 364.346Z" fill="#241A14"/>
<path d="M433.744 380.23C433.744 380.23 439.882 366.711 448.996 369.658C458.11 372.605 451.395 407.264 434.943 400.16" stroke="#FF7171" stroke-width="3.0547" stroke-miterlimit="10" stroke-linecap="round" stroke-linejoin="round"/>
<path d="M440.301 362.778L438.814 373.154L438.519 375.18L433.55 409.872L433.458 410.524V410.565L432.532 416.99C432.135 419.749 429.742 421.786 426.952 421.725L425.19 421.684L424.599 421.674L406.393 421.287L405.762 421.267L396.679 421.073C394.775 421.032 393.187 419.586 392.962 417.692L391.883 408.436L391.771 407.52L390.03 392.643L389.938 391.869L388.054 375.71L387.962 374.946L386.516 362.584C386.516 363.684 389.825 364.671 395.12 365.364C395.314 365.395 395.507 365.415 395.7 365.435C398.266 365.761 401.26 366.005 404.549 366.168C404.743 366.178 404.926 366.188 405.119 366.198C407.736 366.32 410.516 366.381 413.418 366.381C417.389 366.381 421.146 366.259 424.537 366.035C424.771 366.025 424.985 366.014 425.209 365.994C425.799 365.953 426.38 365.913 426.95 365.862C427.154 365.852 427.357 365.832 427.551 365.811C434.853 365.181 439.843 364.061 440.301 362.778Z" fill="#FF7171"/>
<path d="M392.871 369.193C391.252 371.321 389.613 373.48 388.055 375.71L387.963 374.946C389.429 372.879 390.967 370.863 392.474 368.887C393.36 367.726 394.246 366.555 395.121 365.364C395.315 365.395 395.508 365.415 395.701 365.435C394.765 366.708 393.818 367.95 392.871 369.193Z" fill="#BB5646"/>
<path d="M405.12 366.199C403.145 369.539 401.332 372.981 399.55 376.351C396.648 381.839 393.664 387.491 390.029 392.643L389.937 391.869C393.409 386.879 396.291 381.412 399.091 376.117C400.842 372.808 402.614 369.447 404.549 366.169C404.744 366.179 404.927 366.189 405.12 366.199Z" fill="#BB5646"/>
<path d="M414.162 378.611C407.503 385.739 399.907 394.353 394.133 404.25C393.257 405.737 392.514 407.121 391.883 408.435L391.771 407.519C392.331 406.399 392.962 405.238 393.685 403.996C399.489 394.058 407.106 385.413 413.795 378.265L415.251 376.717C418.458 373.306 421.727 369.834 424.537 366.036C424.771 366.026 424.985 366.015 425.209 365.995C422.327 369.936 418.937 373.54 415.627 377.063L414.162 378.611Z" fill="#BB5646"/>
<path d="M427.553 365.812C427.309 366.282 427.085 366.739 426.871 367.188C422.94 375.405 420.252 384.284 417.656 392.878C415.721 399.293 413.715 405.922 411.2 412.245C409.968 415.351 408.532 418.567 406.394 421.286L405.763 421.267C407.993 418.538 409.459 415.239 410.732 412.062C413.237 405.759 415.233 399.141 417.167 392.736C419.774 384.122 422.462 375.212 426.413 366.964C426.586 366.608 426.769 366.241 426.953 365.864C427.155 365.854 427.359 365.832 427.553 365.812Z" fill="#BB5646"/>
<path d="M438.814 373.154L438.519 375.18C437.053 378.672 435.423 382.114 433.825 385.464C430.058 393.407 426.158 401.614 424.427 410.33C423.826 413.354 423.236 417.794 425.058 421.439C425.099 421.521 425.139 421.602 425.19 421.683L424.599 421.673C422.705 417.875 423.306 413.323 423.927 410.238C425.668 401.45 429.578 393.213 433.366 385.25C435.23 381.31 437.155 377.257 438.814 373.154Z" fill="#BB5646"/>
<path d="M411.595 417.537C414.341 417.545 417.087 417.575 419.812 417.519C421.174 417.472 422.529 417.404 423.872 417.305C425.209 417.204 426.553 417.044 427.741 416.621L427.782 416.606C427.992 416.531 428.224 416.641 428.299 416.851C428.363 417.032 428.291 417.228 428.136 417.328C426.85 418.15 425.415 418.429 424.028 418.658C422.63 418.856 421.228 418.927 419.834 418.927C417.045 418.936 414.275 418.756 411.525 418.318C411.311 418.284 411.164 418.082 411.199 417.868C411.23 417.674 411.398 417.536 411.588 417.537H411.595Z" fill="#FF9DDD"/>
<path d="M395.339 362.619C394.943 362.795 394.51 363.066 394.466 363.497C394.434 363.807 394.629 364.105 394.886 364.282C395.142 364.459 395.453 364.536 395.756 364.603C397.024 364.885 398.324 365.054 399.623 365.001C399.784 364.994 399.958 364.979 400.079 364.873C400.249 364.723 400.245 364.456 400.187 364.237C400.129 364.018 400.03 363.799 400.058 363.574C400.116 363.113 400.643 362.891 401.089 362.764C401.984 362.509 402.884 362.273 403.789 362.055C404.444 361.897 405.532 361.867 406.078 361.497C405.704 361.151 404.873 361.242 404.399 361.279C403.375 361.358 402.351 361.423 401.325 361.483C399.296 361.602 397.221 361.784 395.339 362.619Z" fill="#FFF2E9"/>
<path d="M323.298 241.209C318.892 236.505 331.088 218.835 337.615 211.092C343.318 204.328 349.179 197.375 356.377 198.255C362.696 199.028 368.845 205.692 369.213 212.079C370.204 229.262 329.56 247.895 323.298 241.209Z" fill="url(#paint3_linear_94_523)"/>
<path d="M376.192 422.788C377.021 423.462 377.173 425.145 377.273 426.245C377.318 426.737 377.34 426.983 377.285 427.156C376.884 428.423 374.428 428.556 370.577 428.949C364.491 429.571 362.68 430.05 362.203 429.145C361.757 428.296 362.837 426.906 362.959 426.753C363.613 425.929 364.415 425.629 365.967 425.119C368.839 424.174 370.779 423.656 371.366 423.499C375.034 422.52 375.647 422.345 376.192 422.788Z" fill="url(#paint4_linear_94_523)"/>
<path d="M372.573 417.228L371.964 424.163C372.137 424.498 374.198 425.502 375.836 424.641L377.401 417.824L372.573 417.228Z" fill="url(#paint5_linear_94_523)"/>
<path d="M327.925 421.896C328.919 422.994 329.145 425.015 328.281 426.011C327.431 426.99 326.154 426.255 322.531 426.364C318.65 426.48 317.637 427.396 315 426.668C313.934 426.374 312.053 425.66 312.088 424.899C312.113 424.364 313.071 424.088 316.271 423.016C320.813 421.494 320.793 421.411 321.757 421.251C324.179 420.85 326.612 420.447 327.925 421.896Z" fill="url(#paint6_linear_94_523)"/>
<path d="M325.439 415.567L323.492 422.042C323.639 422.389 325.618 423.548 327.316 422.814L330.207 416.53L325.439 415.567Z" fill="url(#paint7_linear_94_523)"/>
<path d="M342.733 273.764C342.454 295.523 340.969 319.989 337.406 346.57C333.885 372.841 328.95 396.578 323.567 417.452C326.051 418.12 328.534 418.788 331.017 419.456C337.318 413.581 345.266 404.333 349.101 391.264C351.481 383.153 350.688 378.985 352.198 369.008C354.601 353.123 359.471 344.8 364.504 331.991C369.026 320.48 374.372 303.587 377.239 281.006C365.737 278.592 354.235 276.178 342.733 273.764Z" fill="url(#paint8_linear_94_523)"/>
<path d="M365.149 271.687C366.669 299.362 367.919 327.551 368.867 356.24C369.578 377.768 370.1 399.023 370.447 419.998C372.983 420.311 375.52 420.625 378.057 420.938C380.508 416.374 383.764 409.397 385.994 400.454C388.703 389.593 388.076 383.143 389.264 371.886C390.597 359.261 392.533 356.51 395.962 340.583C402.923 308.261 406.404 292.099 398.639 282.046C396.118 278.782 388.216 270.595 365.149 271.687Z" fill="url(#paint9_linear_94_523)"/>
<path d="M402.12 202.134C396.179 200.464 387.472 198.51 376.81 197.908C361.601 197.048 353.997 196.618 348.609 200.24C336.163 208.604 345.799 227.91 340.704 275.767C339.977 282.601 339.814 289.484 339.287 296.337C338.414 307.683 338.216 308.299 339.005 309.449C343.956 316.658 362.426 305.784 389.498 310.082C404.645 312.488 411.515 318.029 415.665 314.032C420.505 309.371 416.353 296.835 412.78 286.043C408.678 273.656 406.144 273.496 403.816 264.167C401.382 254.416 402.854 249.395 403.233 234.018C403.414 226.661 403.376 215.711 402.12 202.134Z" fill="url(#paint10_linear_94_523)"/>
<g opacity="0.3">
<path d="M365.306 291.979C372.382 291.425 376.972 295.426 383.08 292.308C391.456 288.033 394.147 274.732 393.613 265.318C392.802 251.015 384.635 247.245 386.043 237.999C386.804 232.999 390.374 226.361 403.191 219.579C403.362 225.287 403.329 230.152 403.234 234.018C402.855 249.394 401.383 254.415 403.816 264.166C406.145 273.496 408.679 273.655 412.78 286.042C416.354 296.834 420.505 309.371 415.666 314.032C411.516 318.028 404.646 312.487 389.499 310.082C366.172 306.378 349.241 313.93 341.833 311.481C350.784 296.688 358.904 292.48 365.306 291.979Z" fill="url(#paint11_linear_94_523)"/>
</g>
<path d="M392.469 203.116C397.522 198.964 407.683 203.664 410.399 204.92C425.546 211.927 439.146 230.807 435.776 250.76C435.271 253.752 432.928 267.749 421.076 274.53C410.382 280.65 395.942 279.076 384.372 270.409C382.791 269.006 381.21 267.603 379.629 266.2C378.073 264.519 376.517 262.838 374.962 261.156C377.407 259.122 381.562 256.188 387.397 254.305C395.09 251.823 400.69 256.277 404.259 252.891C406.723 250.554 406.728 246.426 406.12 243.924C404.894 238.882 400.449 237.464 396.74 233.885C388.024 225.477 386.418 208.087 392.469 203.116Z" fill="url(#paint12_linear_94_523)"/>
<path d="M319.845 268.253L387.58 267.242L369.568 275.935L319.672 272.669L319.845 268.253Z" fill="url(#paint13_linear_94_523)"/>
<path d="M389.971 269.042V269.042C389.971 270.31 389.178 271.442 387.986 271.876L366.343 280.36L366.244 274.478L387.58 267.242C388.778 266.898 389.971 267.797 389.971 269.042Z" fill="url(#paint14_linear_94_523)"/>
<path d="M379.541 265.034C379.956 264.941 377.516 260.078 375.599 260.639C373.683 261.2 364.311 266.632 363.459 268.868C362.607 271.105 362.607 271.105 362.607 271.105C362.607 271.105 366.696 271.424 369.231 270.572C371.767 269.72 376.16 265.788 379.541 265.034Z" fill="url(#paint15_linear_94_523)"/>
<path d="M364.448 233.204L369.222 276.676C369.387 278.176 367.287 280.411 365.78 280.339L295.738 276.04C294.587 275.985 293.629 275.138 293.434 274.002L284.643 232.016C284.38 230.488 287.127 228.91 288.677 228.953L362.076 231.017C363.302 231.052 364.314 231.985 364.448 233.204Z" fill="url(#paint16_linear_94_523)"/>
<path d="M362.847 234.471L367.622 277.944C367.787 279.444 366.572 280.736 365.065 280.665L294.137 277.307C292.987 277.253 292.028 276.405 291.833 275.27L284.587 233.091C284.324 231.563 285.526 230.177 287.076 230.221L360.475 232.285C361.701 232.319 362.714 233.252 362.847 234.471Z" fill="url(#paint17_linear_94_523)"/>
<path opacity="0.3" d="M321.199 267.121C327.392 264.496 325.206 259.49 332.519 253.253C342.167 245.025 352.001 248.593 355.444 242.216C356.516 240.229 357.028 237.138 355.16 232.136L360.475 232.285C361.701 232.319 362.714 233.253 362.847 234.472L367.622 277.944C367.786 279.444 366.572 280.737 365.065 280.666L294.137 277.308C292.986 277.253 292.028 276.406 291.833 275.271L290.833 269.45C292.985 268.253 295.557 267.164 298.557 266.555C308.963 264.444 314.068 270.143 321.199 267.121Z" fill="url(#paint18_linear_94_523)"/>
<path d="M289.668 271.227C289.553 270.877 289.798 270.516 290.166 270.497C291.665 270.421 295.142 270.39 297.061 271.565C299.554 273.092 302.778 275.879 300.063 277.286L297.528 278.599C297.412 278.659 297.285 278.678 297.157 278.65C296.256 278.452 292.465 277.611 292.05 277.402C291.673 277.212 290.227 272.922 289.668 271.227Z" fill="url(#paint19_linear_94_523)"/>
<path d="M375.674 181.292C375.636 185.801 376.139 189.376 376.615 191.825C377.16 194.631 377.553 195.355 378.054 195.944C378.809 196.829 379.952 197.572 386.413 199.174C389.929 200.045 390.381 200.022 390.459 200.37C390.837 202.072 381.25 207.873 371.346 206.475C365.284 205.619 359.769 202.161 360.108 200.345C360.448 198.517 366.503 199.498 368.308 196.192C369.563 193.891 368.156 190.626 366.493 187.922C368.104 184.903 374.063 184.311 375.674 181.292Z" fill="url(#paint20_linear_94_523)"/>
<path d="M364.424 183.074C362.993 181.174 362.905 177.856 364.553 175.759C365.972 173.954 368.204 173.697 369.541 173.543C373.413 173.095 378.299 174.712 379.999 178.276C381.006 180.388 378.828 184.777 378.487 185.566C378.1 186.458 377.4 186.764 376.752 187.439C375.854 188.374 374.448 189.862 372.154 192.35C371.976 191.616 371.704 190.707 371.274 189.722C371.108 189.343 370.442 187.862 369.435 186.634C367.417 184.173 365.78 184.875 364.424 183.074Z" fill="url(#paint21_linear_94_523)"/>
<path d="M375.427 190.258C375.427 190.258 372.881 194.435 367.812 194.105C363.274 193.81 362.609 183.632 365.508 181.473C366.475 180.752 368.412 180.453 369.987 180.894C370.917 181.155 371.232 181.541 372.76 181.937C374.169 182.303 374.567 182.147 374.993 182.505C375.525 182.953 375.915 184.051 375.026 187.026C375.892 186.149 376.931 185.813 377.668 186.161C377.785 186.216 378.097 186.428 378.272 186.75C378.907 187.912 377.845 189.397 375.427 190.258Z" fill="url(#paint22_linear_94_523)"/>
<path d="M375.198 181.896C374.979 182.059 375.648 182.876 375.698 184.032C375.795 186.275 373.525 188.968 371.208 189.196C369.839 189.331 369.462 188.506 367.198 188.266C365.796 188.118 364.63 188.297 363.896 188.457C363.184 190.918 363.853 193.37 365.498 194.509C367.269 195.734 369.53 194.991 370.476 194.68C371.108 194.472 373.135 193.81 374.195 191.951C375.299 190.014 374.216 188.846 375.482 187.536C376.121 186.875 376.96 186.589 377.776 185.31C377.998 184.962 378.146 184.655 378.237 184.448C377.065 183.207 375.515 181.66 375.198 181.896Z" fill="url(#paint23_linear_94_523)"/>
<path d="M365.542 189.369C365.542 189.369 366.522 189.881 368.216 189.785C368.298 189.781 368.389 189.805 368.4 189.848C368.439 190.008 367.352 190.729 366.351 190.447C365.64 190.247 365.087 189.574 365.183 189.403C365.223 189.331 365.384 189.34 365.542 189.369Z" fill="url(#paint24_linear_94_523)"/>
<path d="M357.485 110.388L346.781 146.358C345.628 150.234 342.235 153.129 337.262 154.84C336.07 155.249 334.834 155.607 333.479 155.88C326.084 157.384 316.484 156.834 306.528 153.871C296.572 150.909 288.258 146.129 282.888 140.826C277.806 135.814 275.445 130.363 276.875 125.557L287.578 89.5868L357.485 110.388Z" fill="url(#paint25_linear_94_523)"/>
<path opacity="0.3" d="M337.347 154.865C336.156 155.274 334.877 155.62 333.522 155.893C326.127 157.397 316.506 156.84 306.549 153.877C296.593 150.915 288.269 146.132 282.899 140.83C277.817 135.817 275.445 130.363 276.875 125.557L282.414 106.944C286.485 110.521 292.362 116.905 291.606 124.168C290.424 135.535 304.115 143.578 319.548 145.524C326.348 146.379 332.611 150.076 337.347 154.865Z" fill="url(#paint26_linear_94_523)"/>
<path d="M374.992 119.332L330.109 77.693L269.764 88.0208L267.687 87.403L267.433 88.2563L314.073 131.553L376.796 120.798L377.05 119.945L374.992 119.332Z" fill="url(#paint27_linear_94_523)"/>
<path d="M330.476 76.462L267.711 87.204L314.392 130.513L377.157 119.771L330.476 76.462Z" fill="url(#paint28_linear_94_523)"/>
<path d="M365.726 157.213C365.325 157.093 365.18 156.696 365.299 156.295L375.84 120.869C376.079 120.068 375.627 119.054 374.825 118.816L322.505 103.247C322.103 103.128 321.85 102.789 321.97 102.388C322.089 101.986 322.486 101.841 322.888 101.961L375.208 117.529C376.811 118.006 377.604 119.65 377.127 121.252L366.586 156.678C366.467 157.079 366.128 157.332 365.726 157.213Z" fill="url(#paint29_linear_94_523)"/>
<path d="M369.377 151.292L369.108 150.014C368.996 149.527 368.64 149.143 368.158 149.008C367.676 148.874 367.166 149.015 366.817 149.373L365.892 150.344C365.665 150.578 365.514 150.868 365.421 151.18L362.553 160.817C362.492 161.024 363.268 161.438 364.372 161.766C365.475 162.095 366.351 162.173 366.413 161.966L369.289 152.302C369.388 151.968 369.455 151.631 369.377 151.292Z" fill="url(#paint30_linear_94_523)"/>
<defs>
<linearGradient id="paint0_linear_94_523" x1="257.623" y1="234.708" x2="339.843" y2="305.423" gradientUnits="userSpaceOnUse">
<stop stop-color="#FF9085"/>
<stop offset="1" stop-color="#FB6FBB"/>
</linearGradient>
<linearGradient id="paint1_linear_94_523" x1="330.499" y1="262.786" x2="298.347" y2="349.087" gradientUnits="userSpaceOnUse">
<stop stop-color="#AA80F9"/>
<stop offset="0.9964" stop-color="#6165D7"/>
</linearGradient>
<linearGradient id="paint2_linear_94_523" x1="157.892" y1="389.169" x2="516.89" y2="389.169" gradientUnits="userSpaceOnUse">
<stop offset="0.494" stop-color="#EBEFF2"/>
<stop offset="1" stop-color="white"/>
</linearGradient>
<linearGradient id="paint3_linear_94_523" x1="343.93" y1="234.604" x2="300.151" y2="444.558" gradientUnits="userSpaceOnUse">
<stop stop-color="#FFC444"/>
<stop offset="0.9964" stop-color="#F36F56"/>
</linearGradient>
<linearGradient id="paint4_linear_94_523" x1="362.176" y1="425.89" x2="377.334" y2="426.328" gradientUnits="userSpaceOnUse">
<stop stop-color="#444B8C"/>
<stop offset="0.9964" stop-color="#26264F"/>
</linearGradient>
<linearGradient id="paint5_linear_94_523" x1="371.964" y1="421.105" x2="377.401" y2="421.105" gradientUnits="userSpaceOnUse">
<stop stop-color="#FFC444"/>
<stop offset="0.9964" stop-color="#F36F56"/>
</linearGradient>
<linearGradient id="paint6_linear_94_523" x1="312.953" y1="421.715" x2="328.487" y2="425.987" gradientUnits="userSpaceOnUse">
<stop stop-color="#444B8C"/>
<stop offset="0.9964" stop-color="#26264F"/>
</linearGradient>
<linearGradient id="paint7_linear_94_523" x1="323.492" y1="419.31" x2="330.207" y2="419.31" gradientUnits="userSpaceOnUse">
<stop stop-color="#FFC444"/>
<stop offset="0.9964" stop-color="#F36F56"/>
</linearGradient>
<linearGradient id="paint8_linear_94_523" x1="318.245" y1="395.491" x2="361.217" y2="298.621" gradientUnits="userSpaceOnUse">
<stop stop-color="#40447E"/>
<stop offset="0.9964" stop-color="#3C3B6B"/>
</linearGradient>
<linearGradient id="paint9_linear_94_523" x1="339.349" y1="400.08" x2="393.865" y2="309.203" gradientUnits="userSpaceOnUse">
<stop stop-color="#40447E"/>
<stop offset="0.9964" stop-color="#3C3B6B"/>
</linearGradient>
<linearGradient id="paint10_linear_94_523" x1="383.68" y1="242.893" x2="339.901" y2="452.846" gradientUnits="userSpaceOnUse">
<stop stop-color="#FFC444"/>
<stop offset="0.9964" stop-color="#F36F56"/>
</linearGradient>
<linearGradient id="paint11_linear_94_523" x1="395.68" y1="375.58" x2="376.463" y2="284.297" gradientUnits="userSpaceOnUse">
<stop stop-color="#FFC444"/>
<stop offset="0.9964" stop-color="#F36F56"/>
</linearGradient>
<linearGradient id="paint12_linear_94_523" x1="412.064" y1="223.963" x2="377.434" y2="390.04" gradientUnits="userSpaceOnUse">
<stop stop-color="#FFC444"/>
<stop offset="0.9964" stop-color="#F36F56"/>
</linearGradient>
<linearGradient id="paint13_linear_94_523" x1="343.651" y1="296.257" x2="351.845" y2="273.041" gradientUnits="userSpaceOnUse">
<stop stop-color="#311944"/>
<stop offset="1" stop-color="#893976"/>
</linearGradient>
<linearGradient id="paint14_linear_94_523" x1="379.446" y1="262.62" x2="376.442" y2="283.378" gradientUnits="userSpaceOnUse">
<stop stop-color="#311944"/>
<stop offset="1" stop-color="#893976"/>
</linearGradient>
<linearGradient id="paint15_linear_94_523" x1="362.607" y1="265.879" x2="379.588" y2="265.879" gradientUnits="userSpaceOnUse">
<stop stop-color="#FFC444"/>
<stop offset="0.9964" stop-color="#F36F56"/>
</linearGradient>
<linearGradient id="paint16_linear_94_523" x1="319.916" y1="264.438" x2="335.891" y2="241.753" gradientUnits="userSpaceOnUse">
<stop stop-color="#444B8C"/>
<stop offset="0.9964" stop-color="#26264F"/>
</linearGradient>
<linearGradient id="paint17_linear_94_523" x1="350.559" y1="301.98" x2="315.598" y2="230.967" gradientUnits="userSpaceOnUse">
<stop stop-color="#311944"/>
<stop offset="1" stop-color="#893976"/>
</linearGradient>
<linearGradient id="paint18_linear_94_523" x1="367.637" y1="256.402" x2="290.833" y2="256.402" gradientUnits="userSpaceOnUse">
<stop stop-color="#311944"/>
<stop offset="1" stop-color="#893976"/>
</linearGradient>
<linearGradient id="paint19_linear_94_523" x1="289.64" y1="274.564" x2="301.095" y2="274.564" gradientUnits="userSpaceOnUse">
<stop stop-color="#FFC444"/>
<stop offset="0.9964" stop-color="#F36F56"/>
</linearGradient>
<linearGradient id="paint20_linear_94_523" x1="376.408" y1="181.335" x2="373.479" y2="231.126" gradientUnits="userSpaceOnUse">
<stop stop-color="#FFC444"/>
<stop offset="0.9964" stop-color="#F36F56"/>
</linearGradient>
<linearGradient id="paint21_linear_94_523" x1="381.284" y1="204.21" x2="369.924" y2="175.041" gradientUnits="userSpaceOnUse">
<stop stop-color="#311944"/>
<stop offset="1" stop-color="#6B3976"/>
</linearGradient>
<linearGradient id="paint22_linear_94_523" x1="363.76" y1="187.405" x2="378.452" y2="187.405" gradientUnits="userSpaceOnUse">
<stop stop-color="#FFC444"/>
<stop offset="0.9964" stop-color="#F36F56"/>
</linearGradient>
<linearGradient id="paint23_linear_94_523" x1="377.776" y1="205.592" x2="366.404" y2="176.394" gradientUnits="userSpaceOnUse">
<stop stop-color="#311944"/>
<stop offset="1" stop-color="#6B3976"/>
</linearGradient>
<linearGradient id="paint24_linear_94_523" x1="365.172" y1="189.93" x2="368.401" y2="189.93" gradientUnits="userSpaceOnUse">
<stop stop-color="#FFC444"/>
<stop offset="0.9964" stop-color="#F36F56"/>
</linearGradient>
<linearGradient id="paint25_linear_94_523" x1="161.743" y1="578.939" x2="323.104" y2="100.415" gradientUnits="userSpaceOnUse">
<stop stop-color="#AA80F9"/>
<stop offset="0.9964" stop-color="#6165D7"/>
</linearGradient>
<linearGradient id="paint26_linear_94_523" x1="302.57" y1="152.585" x2="314.331" y2="117.706" gradientUnits="userSpaceOnUse">
<stop stop-color="#AA80F9"/>
<stop offset="0.9964" stop-color="#6165D7"/>
</linearGradient>
<linearGradient id="paint27_linear_94_523" x1="338.938" y1="66.9621" x2="315.536" y2="119.015" gradientUnits="userSpaceOnUse">
<stop stop-color="#AA80F9"/>
<stop offset="0.9964" stop-color="#6165D7"/>
</linearGradient>
<linearGradient id="paint28_linear_94_523" x1="342.543" y1="51.299" x2="297.156" y2="169.09" gradientUnits="userSpaceOnUse">
<stop stop-color="#AA80F9"/>
<stop offset="0.9964" stop-color="#6165D7"/>
</linearGradient>
<linearGradient id="paint29_linear_94_523" x1="392.093" y1="84.1311" x2="295.361" y2="176.025" gradientUnits="userSpaceOnUse">
<stop stop-color="#FFC444"/>
<stop offset="0.9964" stop-color="#F36F56"/>
</linearGradient>
<linearGradient id="paint30_linear_94_523" x1="355.374" y1="181.786" x2="371.177" y2="143.968" gradientUnits="userSpaceOnUse">
<stop stop-color="#FFC444"/>
<stop offset="0.9964" stop-color="#F36F56"/>
</linearGradient>
</defs>
</svg>
