<svg width="500" height="500" viewBox="0 0 500 500" fill="none" xmlns="http://www.w3.org/2000/svg">
<path d="M329.724 69.0247C301.096 62.9344 271.333 60.0154 242.231 61.876C216.437 63.5252 187.2 68.0264 166.443 84.1498C156.552 91.8334 144.755 105.64 141.52 117.82C141.519 117.822 124.489 181.933 90.4274 195.671C56.3658 209.41 32.7118 443.878 291.013 420.981C291.013 420.981 442.725 414.981 451.859 242.156C454.066 200.407 452.833 154.51 426.397 119.601C406.14 92.8498 377.757 80.9553 345.142 72.6325C340.047 71.3325 334.904 70.1267 329.724 69.0247Z" fill="#F4F7FA"/>
<mask id="mask0_93_284" style="mask-type:luminance" maskUnits="userSpaceOnUse" x="317" y="197" width="135" height="141">
<path d="M451.643 197.975H317.579V337.343H451.643V197.975Z" fill="white"/>
</mask>
<g mask="url(#mask0_93_284)">
<mask id="mask1_93_284" style="mask-type:luminance" maskUnits="userSpaceOnUse" x="287" y="275" width="164" height="119">
<path d="M287.968 373.611L307.753 393.924C307.753 393.924 321.898 387.599 324.403 375.458C329.515 350.687 350.854 356.893 360.18 358.155C374.245 360.059 387.469 355.603 379.927 340.008C372.385 324.413 402.153 318.473 424.424 324.821C446.218 331.033 469.837 295.876 423.901 278.1C396.468 267.484 379.077 290.27 367.559 299.689C356.041 309.108 339.781 294.171 332.073 312.21C325.49 327.619 325.954 344.26 311.816 344.985C297.678 345.71 288.463 353.336 287.968 373.611Z" fill="white"/>
</mask>
<g mask="url(#mask1_93_284)">
<path d="M287.968 373.611L307.753 393.924C307.753 393.924 321.898 387.599 324.403 375.458C329.515 350.687 350.854 356.893 360.18 358.155C374.245 360.059 385.778 355.702 381.651 340.958C376.983 324.276 402.153 318.473 424.424 324.821C446.218 331.033 469.837 295.876 423.901 278.1C396.468 267.484 379.077 290.27 367.559 299.689C356.041 309.108 339.781 294.171 332.073 312.21C325.49 327.619 325.954 344.26 311.816 344.985C297.678 345.71 288.463 353.336 287.968 373.611Z" fill="url(#paint0_linear_93_284)"/>
</g>
<mask id="mask2_93_284" style="mask-type:luminance" maskUnits="userSpaceOnUse" x="287" y="275" width="164" height="119">
<path d="M287.968 373.611L307.753 393.924C307.753 393.924 321.898 387.599 324.403 375.458C329.515 350.687 350.854 356.893 360.18 358.155C374.245 360.059 387.469 355.603 379.927 340.008C372.385 324.413 402.153 318.473 424.424 324.821C446.218 331.033 469.837 295.876 423.901 278.1C396.468 267.484 379.077 290.27 367.559 299.689C356.041 309.108 339.781 294.171 332.073 312.21C325.49 327.619 325.954 344.26 311.816 344.985C297.678 345.71 288.463 353.336 287.968 373.611Z" fill="white"/>
</mask>
<g mask="url(#mask2_93_284)">
<g opacity="0.5">
<path d="M294.646 384.239L295.134 384.585C295.348 384.283 316.945 354.089 347.379 330.612C375.417 308.984 416.913 288.797 455.371 315.45L455.712 314.958C438.593 303.093 419.459 299.364 398.843 303.872C382.375 307.474 364.934 316.313 347.004 330.146C316.501 353.678 294.861 383.936 294.646 384.239Z" fill="#BEB8F2"/>
<path d="M390.31 306.128L390.777 306.502C403.224 290.943 428.599 276.743 428.854 276.602L428.563 276.078C428.307 276.221 402.829 290.478 390.31 306.128Z" fill="#BEB8F2"/>
<path d="M404.128 303.5C427.183 309.176 436.004 326.867 436.09 327.045L436.629 326.784C436.541 326.603 427.609 308.665 404.271 302.919L404.128 303.5Z" fill="#BEB8F2"/>
<path d="M328.318 347.045C353.207 332.147 384.949 354.816 385.24 355.063L385.656 354.633C385.394 354.364 353.12 331.501 328.011 346.531L328.318 347.045Z" fill="#BEB8F2"/>
<path d="M336.757 338.568L337.253 338.903C347.605 323.558 342.823 300.776 342.773 300.548L342.188 300.675C342.237 300.901 346.965 323.438 336.757 338.568Z" fill="#BEB8F2"/>
</g>
</g>
<path d="M364.77 344.56C370.241 350.36 369.106 358.008 367.417 363.414C366.681 363.625 366.311 363.933 365.617 364.309C359.355 367.701 355.961 367.815 349.262 370.184C347.82 370.694 343.132 370.903 341.211 370.866L337.63 370.739C337.63 370.739 326.768 355.948 334.453 348.876C342.138 341.804 333.603 326.447 330.084 317.755C327.924 312.417 328.645 309.283 328.166 307.195C323.095 285.083 314.66 280.559 317.428 272.356C320.484 263.3 331.637 266.221 335.481 256.545C339.822 245.619 328.515 234.559 334.933 225.138C336.034 223.522 337.208 221.893 339.404 220.487C344.824 217.018 350.649 219.065 353.454 212.953C359.092 200.668 372.097 193.192 383.642 200.986C395.037 208.679 391.127 231.425 371.028 254.446C358.601 272.447 359.582 276.522 363.903 285.906C366.93 292.478 379.491 308.294 371.651 318.202C363.812 328.11 358.515 337.93 364.77 344.56Z" fill="url(#paint1_linear_93_284)"/>
<mask id="mask3_93_284" style="mask-type:luminance" maskUnits="userSpaceOnUse" x="328" y="197" width="62" height="175">
<path d="M364.759 370.158L338.364 371.183C338.364 371.183 326.767 355.949 334.453 348.877C342.138 341.805 333.603 326.448 330.084 317.756C320.537 294.17 349.499 288.462 339.858 257.207C337.294 248.894 329.393 233.879 334.933 225.139C341.245 215.181 349.847 220.814 353.454 212.954C359.091 200.669 372.097 193.193 383.642 200.987C395.036 208.68 391.126 231.426 371.028 254.447C358.601 272.448 359.581 276.523 363.903 285.907C366.93 292.479 379.491 308.295 371.651 318.203C363.812 328.111 358.515 337.93 364.77 344.561C374.287 354.65 364.759 370.158 364.759 370.158Z" fill="white"/>
</mask>
<g mask="url(#mask3_93_284)">
<g opacity="0.5">
<path d="M352.902 369.443L352.385 369.525C351.906 366.673 351.46 363.792 351.061 360.96C348.106 339.993 347.374 319.499 348.883 300.046C350.162 283.564 353.065 267.596 357.512 252.587C361.088 240.517 365.676 228.999 371.151 218.353C375 210.869 379.242 203.889 383.763 197.609C384.55 196.514 385.421 195.435 386.263 194.391C387.385 193 388.545 191.561 389.517 190.076L389.963 190.323C388.978 191.829 387.81 193.277 386.681 194.678C385.843 195.716 384.976 196.791 384.197 197.874C379.691 204.135 375.46 211.093 371.623 218.556C366.162 229.176 361.584 240.667 358.016 252.709C353.579 267.687 350.682 283.623 349.405 300.074C347.898 319.494 348.63 339.955 351.58 360.89C351.978 363.718 352.423 366.595 352.902 369.443Z" fill="#FCFDFE"/>
<path d="M353.417 271.163L352.9 271.093C356.487 250.472 338.102 219.364 337.916 219.052L338.375 218.812C338.562 219.125 357.032 250.376 353.417 271.163Z" fill="#FCFDFE"/>
<path d="M348.824 329.585L348.301 329.572C348.975 315.318 372.13 297.99 372.364 297.816L372.687 298.194C372.455 298.366 349.487 315.555 348.824 329.585Z" fill="#FCFDFE"/>
<path d="M349.195 337.693L348.676 337.765C347.336 328.561 340.194 316.75 328.567 304.508C327.982 303.892 327.982 303.892 327.968 303.801L328.486 303.723L328.227 303.762L328.452 303.637C328.485 303.682 328.706 303.914 328.962 304.184C340.656 316.496 347.841 328.396 349.195 337.693Z" fill="#FCFDFE"/>
<path d="M368.508 224.874L367.997 224.777C370.678 213.405 370.663 200.923 370.657 196.821C370.656 195.828 370.657 195.478 370.68 195.356L371.195 195.433C371.179 195.527 371.18 196.094 371.181 196.813C371.186 200.928 371.202 213.45 368.508 224.874Z" fill="#FCFDFE"/>
<path d="M361.209 242.808L360.754 242.576C366.532 233.022 389.163 226.951 390.124 226.697L390.26 227.164C390.027 227.226 366.879 233.434 361.209 242.808Z" fill="#FCFDFE"/>
</g>
</g>
<path d="M357.739 385.727C355.998 385.686 350.639 401.809 344.467 390.971C342.925 388.263 340.491 378.597 327.711 379.46C325.23 379.627 322.75 379.794 320.269 379.962C317.569 374.629 316.012 369.102 323.293 366.202C334.599 361.697 332.603 342.257 328.591 335.72C323.625 327.63 312.472 308.567 329.835 301.343C344.289 295.329 354.923 294.238 353.835 275.929C352.746 257.619 361.94 245.179 379.557 244.461C398.097 243.706 410.475 219.029 426.463 225.211C454.32 235.983 435.226 278.545 404.636 293.455C374.046 308.365 393.652 317.345 396.263 332.152C396.428 333.541 396.576 335.706 396.265 338.294C394.354 354.23 378.374 358.591 368.063 372.542C354.001 391.568 360.673 385.795 357.739 385.727Z" fill="url(#paint2_linear_93_284)"/>
<mask id="mask4_93_284" style="mask-type:luminance" maskUnits="userSpaceOnUse" x="318" y="224" width="122" height="161">
<path d="M362.288 380.358L322.148 384.189C319.225 379.049 315.161 369.441 323.293 366.201C334.599 361.696 332.603 342.256 328.591 335.719C323.626 327.629 312.473 308.566 329.835 301.342C344.289 295.329 354.924 294.238 353.835 275.928C352.747 257.618 361.94 245.178 379.558 244.46C398.097 243.705 410.476 219.028 426.463 225.21C454.321 235.982 435.226 278.544 404.636 293.454C374.046 308.364 393.652 317.344 396.263 332.151C399.828 352.366 370.188 351.019 363.432 359.801C358.135 366.685 360.269 375.212 362.288 380.358Z" fill="white"/>
</mask>
<g mask="url(#mask4_93_284)">
<g opacity="0.5">
<path d="M342.739 376.203L341.868 376.126C347.732 316.068 384.463 259.04 437.726 227.297L438.193 227.995C385.155 259.604 348.579 316.394 342.739 376.203Z" fill="#FCFDFE"/>
<path d="M348.909 343.722L348.039 343.809C345.358 320.233 321.883 303.987 321.646 303.826L322.158 303.157C322.398 303.32 346.185 319.775 348.909 343.722Z" fill="#FCFDFE"/>
<path d="M344.137 365.183L343.327 364.869C352.96 342.636 398.636 335.074 399.097 335L399.245 335.813C398.789 335.887 353.586 343.372 344.137 365.183Z" fill="#FCFDFE"/>
<path d="M373.979 289.577L373.144 289.33C379.161 271.139 364.087 245.571 363.935 245.315L364.696 244.91C364.851 245.169 380.107 271.05 373.979 289.577Z" fill="#FCFDFE"/>
<path d="M398.563 259.129L398.028 258.475C416.245 245.219 447.162 248.459 447.473 248.494L447.373 249.313C447.066 249.279 416.496 246.079 398.563 259.129Z" fill="#FCFDFE"/>
</g>
</g>
</g>
<path d="M379.333 431.383L300.055 428.316V263.646L379.333 261.719V431.383Z" fill="url(#paint3_linear_93_284)"/>
<path d="M436.862 427.711L379.333 431.383V261.719L436.862 264.544V427.711Z" fill="url(#paint4_linear_93_284)"/>
<path opacity="0.3" d="M375.052 431.224L299.735 428.316V264.201C304.558 265.809 315.518 271.876 315.518 291.301C315.518 298.266 317.18 305.499 323.607 309.139C330.717 313.165 339.693 313.295 347.264 316.04C364.139 322.16 368.119 342.712 360.539 357.416C357.343 363.618 352.461 368.619 349.822 375.24C347.55 380.943 346.787 387.041 348.04 393.08C350.362 404.275 358.191 413.581 365.819 421.687C368.864 424.924 371.923 428.068 375.052 431.224Z" fill="url(#paint5_linear_93_284)"/>
<path d="M243.795 325.192V439.462L237.35 439.072L167.118 434.78V323.078L243.795 325.192Z" fill="url(#paint6_linear_93_284)"/>
<path d="M310.735 433.997L243.784 439.462V325.19L310.735 323.85V433.997Z" fill="url(#paint7_linear_93_284)"/>
<path d="M167.244 323.078L240.042 320.054L310.734 323.849L242.986 326.254L167.244 323.078Z" fill="url(#paint8_linear_93_284)"/>
<path opacity="0.3" d="M237.344 439.073L167.118 434.78V324.368C171.941 325.976 182.724 332.043 182.724 351.468C182.724 375.484 203.738 365.372 215.62 375.737C227.501 386.101 228.496 398.964 219.648 414.653C212.13 427.985 229.239 430.897 237.344 439.073Z" fill="url(#paint9_linear_93_284)"/>
<path d="M101.894 297.111C101.894 297.111 296.181 316.217 355.37 159.58L373.177 181.436L353.745 93.8564L305.807 149.844L330.121 149.023C330.121 149.023 300.307 258.508 101.894 297.111Z" fill="#D8DEE8"/>
<path d="M113.522 314.05L110.418 318.42C110.418 318.42 109.78 321.185 111.67 320.254L117.274 314.462L113.522 314.05Z" fill="url(#paint10_linear_93_284)"/>
<path d="M183.181 227.521C179.03 240.974 170.777 261.419 153.728 282.333C141.106 297.816 127.686 308.623 117.255 315.769C116.538 315.93 115.322 316.11 113.865 315.867C112.782 315.687 111.938 315.335 111.375 315.046C112.331 311.242 114.174 305.645 118.018 299.694C125.052 288.804 130.574 289.445 137.541 279.872C142.643 272.863 144.685 265.246 148.769 250.011C151.922 238.248 152.128 235.408 155.523 232.161C162.387 225.597 174.353 226.125 183.181 227.521Z" fill="url(#paint11_linear_93_284)"/>
<g opacity="0.2">
<path d="M120.224 302.35C122.683 299.183 126.873 295.968 135.138 289.626C143.68 283.072 143.281 284.315 145.011 282.338C152.759 273.487 149.628 263.451 152.233 251.662C153.686 245.085 157.438 236.584 167.251 227.347C162.926 227.866 158.721 229.242 155.523 232.162C151.595 235.747 151.6 239.452 148.769 250.012C144.685 265.246 142.643 272.864 137.541 279.873C130.574 289.446 125.052 288.805 118.018 299.695C114.174 305.646 112.331 311.243 111.375 315.046C111.939 315.335 112.782 315.688 113.865 315.868C114.724 316.011 115.495 316.006 116.133 315.945C116.178 308.133 118.977 303.956 120.224 302.35Z" fill="url(#paint12_linear_93_284)"/>
</g>
<path d="M108.514 317.815L107.998 327.61C107.966 328.214 108.648 328.539 109.045 328.113C109.435 327.692 109.774 327.092 109.756 326.281C109.714 324.406 112.454 320.467 112.074 318.525C111.95 317.89 110.629 317.258 110.273 316.965C109.573 316.389 108.564 316.876 108.514 317.815Z" fill="url(#paint13_linear_93_284)"/>
<path d="M230.839 258.341L235.5 263.253C235.5 263.253 236.899 263.243 237.638 261.409L234.151 255.412L230.839 258.341Z" fill="url(#paint14_linear_93_284)"/>
<path d="M237.241 266.179L244.878 259.255C245.349 258.829 245.037 258.051 244.402 258.061C243.776 258.07 243.059 258.254 242.476 258.874C241.128 260.31 236.009 261.113 234.884 262.863C234.517 263.435 235.12 264.941 235.192 265.439C235.333 266.417 236.509 266.842 237.241 266.179Z" fill="url(#paint15_linear_93_284)"/>
<path d="M235.968 257.747C235.949 257.756 235.512 257.974 232.005 261.134C231.468 261.11 230.88 260.943 230.248 260.657C224.229 257.953 214.416 244.441 211.627 236.905C208.54 228.577 200.623 236.982 174.283 244.608C154.359 250.381 150.082 238.629 149.186 232.561C148.895 230.608 147.834 227.965 147.834 227.965C147.834 227.965 158.639 224.71 171.192 221.359C184.218 217.882 196.82 218.462 211.712 219.5C226.602 220.533 235.968 257.747 235.968 257.747Z" fill="url(#paint16_linear_93_284)"/>
<path opacity="0.3" d="M211.627 236.904C208.54 228.577 200.623 236.981 174.283 244.608C154.359 250.38 150.082 238.629 149.186 232.561C151.007 232.822 153.729 233.874 157.759 236.235C162.76 239.163 168.349 241.091 174.094 241.838C179.395 242.525 185.325 238.951 187.444 237.838C195.085 233.83 196.222 225.21 202.193 225.161C208.094 225.116 213.188 232.473 217.279 238.498C221.59 244.839 221.218 246.816 224.488 252.541C226.223 255.587 228.19 258.279 230.248 260.657C224.229 257.953 214.416 244.44 211.627 236.904Z" fill="url(#paint17_linear_93_284)"/>
<path d="M211.66 138.699C211.879 138.272 211.97 136.507 211.476 135.587C210.982 134.666 210.038 133.328 210.608 132.352C211.179 131.376 210.812 128.418 212.683 128.618C214.554 128.818 217.376 131.346 215.918 133.575C214.461 135.806 214.471 138.108 214.622 138.72C214.773 139.332 211.66 138.699 211.66 138.699Z" fill="url(#paint18_linear_93_284)"/>
<path d="M216.02 138.524C216.144 143.705 215.691 148.277 214.772 152.315C211.668 165.991 203.25 173.522 194.031 177.72C180.658 183.815 165.592 182.895 162.567 183.53C162.091 183.634 161.829 183.679 161.829 183.679C161.829 183.679 163.678 174.009 164.541 165.688C167.064 165.313 169.398 164.755 171.562 164.068C171.65 164.041 171.737 164.01 171.825 163.983C172.87 163.64 173.864 163.269 174.824 162.864C184.429 158.852 193.154 163.784 202.061 154.248C207.45 148.483 209.991 137.739 209.991 137.739L211.719 137.966L216.02 138.524Z" fill="url(#paint19_linear_93_284)"/>
<path opacity="0.3" d="M214.772 152.315C211.668 165.991 203.25 173.522 194.031 177.72C190.988 177.776 188.09 177.869 185.665 179.592C180.228 183.46 171.035 177.074 171.035 177.074C171.035 177.074 171.005 170.699 170.978 165.551C172.077 165.558 173.141 165.518 174.181 165.431C184.566 164.565 191.217 173.139 202.739 165.993C208.15 162.642 212.906 155.399 214.772 152.315Z" fill="url(#paint20_linear_93_284)"/>
<path d="M171.46 151.638C172.653 149.78 173.062 149.833 173.412 148.824C174.208 146.525 173.075 143.387 171.86 143.221C171.078 143.115 170.888 144.329 169.032 146.064C166.757 148.189 165.552 147.757 164.147 149.659C163.819 150.104 162.34 152.107 162.954 153.777C163.739 155.907 167.612 156.626 169.403 155.226C170.253 154.562 169.989 153.926 171.46 151.638Z" fill="url(#paint21_linear_93_284)"/>
<path d="M168.317 153.453C168.317 153.453 168.636 157.247 167.832 160.223C167.105 162.913 161.749 165.239 160.695 165.955C159.641 166.671 163.098 167.916 166.396 167.821C169.693 167.726 178.892 165.781 180.408 164.329C181.923 162.878 178.913 163.363 176.479 162.812C174.045 162.26 172.112 157.891 172.255 155.776C172.397 153.66 168.317 153.453 168.317 153.453Z" fill="url(#paint22_linear_93_284)"/>
<path d="M169.095 156.339C169.095 156.339 171.475 157.687 173.861 156.146C175.997 154.767 173.553 149.616 171.55 149.35C170.881 149.261 169.854 149.642 169.205 150.286C168.821 150.666 168.773 150.941 168.134 151.55C167.545 152.112 167.308 152.144 167.198 152.435C167.06 152.798 167.168 153.44 168.412 154.652C167.75 154.459 167.151 154.578 166.886 154.948C166.844 155.007 166.749 155.195 166.751 155.4C166.758 156.14 167.68 156.577 169.095 156.339Z" fill="url(#paint23_linear_93_284)"/>
<path d="M280.234 114.332L279.638 151.856C279.574 155.899 277.089 159.603 272.762 162.592C271.726 163.308 270.632 163.986 269.401 164.615C262.686 168.06 253.294 170.121 242.908 169.957C232.521 169.792 223.226 167.434 216.624 163.778C210.377 160.324 206.633 155.713 206.712 150.699L207.307 113.175L280.234 114.332Z" fill="url(#paint24_linear_93_284)"/>
<path opacity="0.3" d="M272.851 162.594C271.814 163.31 270.676 163.988 269.445 164.617C262.73 168.061 253.316 170.122 242.93 169.957C232.544 169.793 223.237 167.435 216.635 163.779C210.388 160.324 206.633 155.713 206.712 150.7L207.02 131.282C211.906 133.628 219.288 138.188 220.521 145.386C222.452 156.649 237.805 160.698 253.191 158.405C259.969 157.393 266.997 159.262 272.851 162.594Z" fill="url(#paint25_linear_93_284)"/>
<path d="M299.505 118.218L245.048 90.2412L189.731 116.477L187.565 116.442L187.551 117.332L244.147 146.43L301.638 119.142L301.652 118.252L299.505 118.218Z" fill="url(#paint26_linear_93_284)"/>
<path d="M245.069 88.957L187.534 116.245L244.174 145.343L301.709 118.056L245.069 88.957Z" fill="url(#paint27_linear_93_284)"/>
<path d="M300.811 157.194C300.392 157.187 300.145 156.844 300.152 156.425L300.738 119.469C300.751 118.633 300.042 117.779 299.206 117.766L244.625 116.9C244.207 116.893 243.871 116.635 243.878 116.217C243.885 115.798 244.228 115.551 244.647 115.558L299.227 116.424C300.899 116.45 302.107 117.819 302.08 119.491L301.494 156.446C301.487 156.865 301.23 157.2 300.811 157.194Z" fill="url(#paint28_linear_93_284)"/>
<path d="M302.727 150.506L302.124 149.349C301.884 148.909 301.438 148.637 300.938 148.637C300.437 148.637 299.984 148.91 299.745 149.35L299.116 150.535C298.96 150.821 298.893 151.141 298.888 151.467L298.729 161.52C298.725 161.736 299.584 161.925 300.736 161.943C301.887 161.961 302.752 161.8 302.755 161.584L302.915 151.502C302.921 151.154 302.894 150.812 302.727 150.506Z" fill="url(#paint29_linear_93_284)"/>
<path d="M232.78 171.34C232.78 171.34 234.812 171.276 234.599 167.385C234.432 164.335 234.911 163.367 235.561 163.974C236.211 164.581 236.125 166.324 236.125 166.324C236.125 166.324 238.943 164.4 240.315 161.63C241.688 158.859 242.11 161.362 242.183 162.828C242.256 164.295 240.029 168.586 238.952 169.315C237.876 170.044 236.038 173.569 236.038 173.569L232.78 171.34Z" fill="url(#paint30_linear_93_284)"/>
<path d="M237.909 173.658C237.909 173.658 236.572 180.731 231.967 186.924L231.963 186.929C231.724 187.255 231.472 187.579 231.21 187.9C231.057 188.088 230.902 188.28 230.741 188.465C227.154 192.614 222.607 195.549 217.26 196.775C209.994 198.44 203.223 197.228 196.386 194.442C194.7 193.757 193.049 192.896 191.402 192.119C190.77 191.819 189.383 190.69 188.677 190.761C187.61 190.868 189.637 196.262 189.804 196.805C191.675 202.992 191.861 209.73 191.305 216.129C190.837 221.545 188.925 227.177 184.578 230.747C181.958 232.898 178.15 233.767 174.82 233.897C174.82 233.897 172.652 234.228 169.477 234.374C167.636 234.46 165.452 234.479 163.151 234.341C159.585 234.128 155.74 233.519 152.454 232.154C148.243 230.404 144.949 227.4 144.348 222.362C144.192 221.034 144.07 219.552 143.998 217.949C143.607 209.866 144.339 198.699 146.94 188.561C147.21 187.509 147.499 186.466 147.81 185.44C150.7 175.922 155.402 167.756 162.576 164.647C163.341 164.31 164.137 164.033 164.96 163.821C183.918 158.919 192.891 164.51 198.828 173.603C204.765 182.691 222.294 189.372 232.711 168.56L237.909 173.658Z" fill="url(#paint31_linear_93_284)"/>
<path opacity="0.3" d="M231.964 186.93C231.725 187.256 231.472 187.58 231.21 187.901C231.058 188.088 230.902 188.281 230.741 188.466C227.154 192.615 222.608 195.55 217.261 196.776C209.995 198.441 203.223 197.229 196.386 194.443C194.7 193.758 193.049 192.897 191.402 192.12C190.77 191.82 189.383 190.691 188.678 190.762C187.611 190.869 189.637 196.263 189.804 196.806C191.676 202.993 191.862 209.731 191.305 216.13C190.838 221.546 188.926 227.178 184.578 230.747C181.958 232.899 178.151 233.768 174.82 233.897C174.82 233.897 172.653 234.229 169.477 234.375C167.636 234.461 165.452 234.48 163.151 234.341C159.196 233.778 155.467 233.061 152.455 232.155C148.244 230.405 144.95 227.4 144.349 222.363C144.192 221.035 144.07 219.553 143.998 217.949C144.84 215.355 147.224 213.008 152.737 212.086C167.059 209.693 168.15 212.347 168.134 202.905C168.123 193.463 169.049 187.196 177.556 187.495C186.063 187.799 184.807 176.797 192.72 180.63C200.634 184.464 215.349 203.968 231.964 186.93Z" fill="url(#paint32_linear_93_284)"/>
<path d="M323.33 452.814L268.879 451.297C262.669 451.013 257.725 443.236 257.725 433.955V433.853C257.725 424.572 262.669 416.921 268.879 416.794L327.141 414.823L323.33 452.814Z" fill="url(#paint33_linear_93_284)"/>
<path d="M419.693 448.254L329.265 451.82C320.805 452.154 313.86 445.972 313.86 438.008V432.606C313.86 424.642 320.805 418.106 329.265 418.007L419.693 416.957V448.254Z" fill="#F4F7FA"/>
<path d="M420.569 449.887L324.924 453.801C317.531 454.103 311.45 445.887 311.45 435.482V435.368C311.45 424.963 317.531 416.436 324.924 416.361L420.569 415.383C421.174 415.377 421.665 416.118 421.665 417.038C421.665 417.958 421.175 418.711 420.569 418.719L324.924 419.98C318.972 420.059 314.086 426.932 314.086 435.301V435.415C314.086 443.784 318.972 450.407 324.924 450.181L420.569 446.551C421.174 446.528 421.665 447.256 421.665 448.176C421.665 449.096 421.174 449.862 420.569 449.887Z" fill="url(#paint34_linear_93_284)"/>
<path d="M320.063 415.449L268.23 416.616C263.466 416.723 259.667 412.952 259.667 408.193V404.966C259.667 400.207 263.466 396.113 268.23 395.816L320.063 392.58V415.449Z" fill="#D8DEE8"/>
<path d="M312.77 416.485L268.879 417.713C262.669 417.839 257.725 412.911 257.725 406.73V406.662C257.725 400.481 262.669 395.134 268.879 394.734L312.77 391.302C313.539 391.253 322.468 391.83 322.468 392.507C322.468 393.183 314.128 393.696 313.364 393.741L268.879 396.955C263.862 397.257 259.85 401.569 259.85 406.572V406.64C259.85 411.643 263.862 415.614 268.879 415.491L312.77 414.05C313.534 414.03 322.468 414.718 322.468 415.395C322.468 416.071 313.539 416.468 312.77 416.485Z" fill="url(#paint35_linear_93_284)"/>
<path d="M419.693 414.28L313.86 415.258V392.453L419.693 393.437V414.28Z" fill="#F4F7FA"/>
<path d="M420.569 394.625L312.77 393.736C312.041 393.73 311.45 393.18 311.45 392.507C311.45 391.834 312.041 391.294 312.77 391.302L420.569 392.403C421.174 392.41 421.665 392.912 421.665 393.524C421.665 394.137 421.174 394.63 420.569 394.625Z" fill="url(#paint36_linear_93_284)"/>
<path d="M420.569 415.383L312.77 416.485C312.041 416.492 311.45 415.953 311.45 415.28C311.45 414.607 312.041 414.056 312.77 414.05L420.569 413.161C421.174 413.156 421.665 413.649 421.665 414.262C421.665 414.875 421.174 415.377 420.569 415.383Z" fill="url(#paint37_linear_93_284)"/>
<path opacity="0.5" d="M308.736 448.593L297.163 447.931C294.366 439.958 294.577 432.269 297.163 422.915L308.736 422.95C306.416 432.5 306.769 440.946 308.736 448.593Z" fill="white"/>
<path d="M284.746 417.533L284.377 403.097L271.091 417.723C271.091 417.723 263.912 421.592 265.145 428.387L273.358 425.119L280.654 427.647C280.654 427.647 280.837 420.511 284.746 417.533Z" fill="#D8DEE8"/>
<path d="M269.598 404L284.378 403.097C284.378 403.097 277.427 408.378 280.655 427.647C280.655 427.647 274.336 425.64 271.587 422.204L265.146 428.387C265.146 428.387 261.213 411.255 269.598 404Z" fill="url(#paint38_linear_93_284)"/>
<path d="M139.148 384.392V447.021L134.095 446.702L65.8467 442.435V380.438L139.148 384.392Z" fill="url(#paint39_linear_93_284)"/>
<path d="M218.14 441.646L139.248 447.018V384.39L218.14 380.876V441.646Z" fill="url(#paint40_linear_93_284)"/>
<path d="M65.9297 380.438L139.471 377.722L218.14 380.877L139.248 384.391L65.9297 380.438Z" fill="url(#paint41_linear_93_284)"/>
<path opacity="0.3" d="M134.143 446.702L65.8467 442.435V382.603C73.2402 384.716 82.4457 390.839 86.1568 408.009C92.1077 435.569 127.176 426.62 134.143 446.702Z" fill="url(#paint42_linear_93_284)"/>
<defs>
<linearGradient id="paint0_linear_93_284" x1="441.214" y1="294.411" x2="286.888" y2="365.909" gradientUnits="userSpaceOnUse">
<stop stop-color="#FFC444"/>
<stop offset="0.9964" stop-color="#F36F56"/>
</linearGradient>
<linearGradient id="paint1_linear_93_284" x1="360.845" y1="194.405" x2="331.219" y2="400.058" gradientUnits="userSpaceOnUse">
<stop stop-color="#FFC444"/>
<stop offset="0.9964" stop-color="#F36F56"/>
</linearGradient>
<linearGradient id="paint2_linear_93_284" x1="402.692" y1="234.801" x2="329.879" y2="387.798" gradientUnits="userSpaceOnUse">
<stop stop-color="#FF9085"/>
<stop offset="1" stop-color="#FB6FBB"/>
</linearGradient>
<linearGradient id="paint3_linear_93_284" x1="576.393" y1="252.013" x2="346.105" y2="349.067" gradientUnits="userSpaceOnUse">
<stop offset="0.0036" stop-color="#E38DDD"/>
<stop offset="1" stop-color="#9571F6"/>
</linearGradient>
<linearGradient id="paint4_linear_93_284" x1="397.051" y1="329.537" x2="478.329" y2="468.345" gradientUnits="userSpaceOnUse">
<stop offset="0.0036" stop-color="#E38DDD"/>
<stop offset="1" stop-color="#9571F6"/>
</linearGradient>
<linearGradient id="paint5_linear_93_284" x1="299.735" y1="347.712" x2="375.052" y2="347.712" gradientUnits="userSpaceOnUse">
<stop offset="0.0036" stop-color="#E38DDD"/>
<stop offset="1" stop-color="#9571F6"/>
</linearGradient>
<linearGradient id="paint6_linear_93_284" x1="481.794" y1="263.723" x2="281.054" y2="349.113" gradientUnits="userSpaceOnUse">
<stop offset="0.0036" stop-color="#E38DDD"/>
<stop offset="1" stop-color="#9571F6"/>
</linearGradient>
<linearGradient id="paint7_linear_93_284" x1="271.318" y1="371.746" x2="331.565" y2="474.636" gradientUnits="userSpaceOnUse">
<stop offset="0.0036" stop-color="#E38DDD"/>
<stop offset="1" stop-color="#9571F6"/>
</linearGradient>
<linearGradient id="paint8_linear_93_284" x1="209.869" y1="274.887" x2="245.596" y2="334.486" gradientUnits="userSpaceOnUse">
<stop offset="0.0036" stop-color="#E38DDD"/>
<stop offset="1" stop-color="#9571F6"/>
</linearGradient>
<linearGradient id="paint9_linear_93_284" x1="167.118" y1="381.72" x2="237.344" y2="381.72" gradientUnits="userSpaceOnUse">
<stop offset="0.0036" stop-color="#E38DDD"/>
<stop offset="1" stop-color="#9571F6"/>
</linearGradient>
<linearGradient id="paint10_linear_93_284" x1="110.015" y1="317.597" x2="117.577" y2="316.439" gradientUnits="userSpaceOnUse">
<stop offset="0.0036" stop-color="#F36F56"/>
<stop offset="1" stop-color="#FFC444"/>
</linearGradient>
<linearGradient id="paint11_linear_93_284" x1="161.605" y1="246.762" x2="121.088" y2="316.964" gradientUnits="userSpaceOnUse">
<stop stop-color="#AB316D"/>
<stop offset="1" stop-color="#792D3D"/>
</linearGradient>
<linearGradient id="paint12_linear_93_284" x1="156.525" y1="246.226" x2="117.006" y2="314.699" gradientUnits="userSpaceOnUse">
<stop stop-color="#AB316D"/>
<stop offset="1" stop-color="#792D3D"/>
</linearGradient>
<linearGradient id="paint13_linear_93_284" x1="167.393" y1="351.082" x2="120.104" y2="327.881" gradientUnits="userSpaceOnUse">
<stop stop-color="#444B8C"/>
<stop offset="0.9964" stop-color="#26264F"/>
</linearGradient>
<linearGradient id="paint14_linear_93_284" x1="233.102" y1="261.68" x2="236.292" y2="256.816" gradientUnits="userSpaceOnUse">
<stop offset="0.0036" stop-color="#F36F56"/>
<stop offset="1" stop-color="#FFC444"/>
</linearGradient>
<linearGradient id="paint15_linear_93_284" x1="217.316" y1="197.851" x2="235.884" y2="250.078" gradientUnits="userSpaceOnUse">
<stop stop-color="#444B8C"/>
<stop offset="0.9964" stop-color="#26264F"/>
</linearGradient>
<linearGradient id="paint16_linear_93_284" x1="204.965" y1="216.225" x2="176.423" y2="274.409" gradientUnits="userSpaceOnUse">
<stop stop-color="#AB316D"/>
<stop offset="1" stop-color="#792D3D"/>
</linearGradient>
<linearGradient id="paint17_linear_93_284" x1="306.72" y1="248.986" x2="161.156" y2="239.195" gradientUnits="userSpaceOnUse">
<stop stop-color="#AB316D"/>
<stop offset="1" stop-color="#792D3D"/>
</linearGradient>
<linearGradient id="paint18_linear_93_284" x1="215.796" y1="136.26" x2="220.687" y2="140.289" gradientUnits="userSpaceOnUse">
<stop offset="0.0036" stop-color="#F36F56"/>
<stop offset="1" stop-color="#FFC444"/>
</linearGradient>
<linearGradient id="paint19_linear_93_284" x1="177.793" y1="127.665" x2="220.821" y2="256.91" gradientUnits="userSpaceOnUse">
<stop offset="0.0036" stop-color="#F36F56"/>
<stop offset="1" stop-color="#FFC444"/>
</linearGradient>
<linearGradient id="paint20_linear_93_284" x1="187.435" y1="148.267" x2="211.862" y2="221.641" gradientUnits="userSpaceOnUse">
<stop offset="0.0036" stop-color="#F36F56"/>
<stop offset="1" stop-color="#FFC444"/>
</linearGradient>
<linearGradient id="paint21_linear_93_284" x1="167.803" y1="153.458" x2="169.69" y2="139.096" gradientUnits="userSpaceOnUse">
<stop stop-color="#444B8C"/>
<stop offset="0.9964" stop-color="#26264F"/>
</linearGradient>
<linearGradient id="paint22_linear_93_284" x1="171.514" y1="140.342" x2="169.447" y2="199.887" gradientUnits="userSpaceOnUse">
<stop offset="0.0036" stop-color="#F36F56"/>
<stop offset="1" stop-color="#FFC444"/>
</linearGradient>
<linearGradient id="paint23_linear_93_284" x1="160.575" y1="145.896" x2="173.681" y2="155.893" gradientUnits="userSpaceOnUse">
<stop offset="0.0036" stop-color="#F36F56"/>
<stop offset="1" stop-color="#FFC444"/>
</linearGradient>
<linearGradient id="paint24_linear_93_284" x1="218.252" y1="618.329" x2="244.437" y2="114.01" gradientUnits="userSpaceOnUse">
<stop stop-color="#AA80F9"/>
<stop offset="0.9964" stop-color="#6165D7"/>
</linearGradient>
<linearGradient id="paint25_linear_93_284" x1="238.749" y1="169.788" x2="240.658" y2="133.029" gradientUnits="userSpaceOnUse">
<stop stop-color="#AA80F9"/>
<stop offset="0.9964" stop-color="#6165D7"/>
</linearGradient>
<linearGradient id="paint26_linear_93_284" x1="250.652" y1="77.5252" x2="242.172" y2="133.963" gradientUnits="userSpaceOnUse">
<stop stop-color="#AA80F9"/>
<stop offset="0.9964" stop-color="#6165D7"/>
</linearGradient>
<linearGradient id="paint27_linear_93_284" x1="249.895" y1="61.4705" x2="237.992" y2="187.141" gradientUnits="userSpaceOnUse">
<stop stop-color="#AA80F9"/>
<stop offset="0.9964" stop-color="#6165D7"/>
</linearGradient>
<linearGradient id="paint28_linear_93_284" x1="306.469" y1="79.7073" x2="238.137" y2="194.303" gradientUnits="userSpaceOnUse">
<stop stop-color="#FFC444"/>
<stop offset="0.9964" stop-color="#F36F56"/>
</linearGradient>
<linearGradient id="paint29_linear_93_284" x1="297.476" y1="183.649" x2="302.484" y2="142.968" gradientUnits="userSpaceOnUse">
<stop stop-color="#FFC444"/>
<stop offset="0.9964" stop-color="#F36F56"/>
</linearGradient>
<linearGradient id="paint30_linear_93_284" x1="235.066" y1="171.84" x2="230.852" y2="181.523" gradientUnits="userSpaceOnUse">
<stop offset="0.0036" stop-color="#F36F56"/>
<stop offset="1" stop-color="#FFC444"/>
</linearGradient>
<linearGradient id="paint31_linear_93_284" x1="169.852" y1="134.502" x2="232.039" y2="321.294" gradientUnits="userSpaceOnUse">
<stop offset="0.0036" stop-color="#F36F56"/>
<stop offset="1" stop-color="#FFC444"/>
</linearGradient>
<linearGradient id="paint32_linear_93_284" x1="152.129" y1="181.33" x2="217.784" y2="227.996" gradientUnits="userSpaceOnUse">
<stop offset="0.0036" stop-color="#F36F56"/>
<stop offset="1" stop-color="#FFC444"/>
</linearGradient>
<linearGradient id="paint33_linear_93_284" x1="301.541" y1="404.411" x2="277.173" y2="486.492" gradientUnits="userSpaceOnUse">
<stop stop-color="#40447E"/>
<stop offset="0.9964" stop-color="#3C3B6B"/>
</linearGradient>
<linearGradient id="paint34_linear_93_284" x1="311.45" y1="434.596" x2="421.665" y2="434.596" gradientUnits="userSpaceOnUse">
<stop stop-color="#40447E"/>
<stop offset="0.9964" stop-color="#3C3B6B"/>
</linearGradient>
<linearGradient id="paint35_linear_93_284" x1="255.565" y1="404.122" x2="327.492" y2="404.908" gradientUnits="userSpaceOnUse">
<stop stop-color="#FFC444"/>
<stop offset="0.9964" stop-color="#F36F56"/>
</linearGradient>
<linearGradient id="paint36_linear_93_284" x1="-392.725" y1="322.498" x2="-585.863" y2="304.549" gradientUnits="userSpaceOnUse">
<stop stop-color="#FFC444"/>
<stop offset="0.9964" stop-color="#F36F56"/>
</linearGradient>
<linearGradient id="paint37_linear_93_284" x1="-394.729" y1="344.065" x2="-587.866" y2="326.116" gradientUnits="userSpaceOnUse">
<stop stop-color="#FFC444"/>
<stop offset="0.9964" stop-color="#F36F56"/>
</linearGradient>
<linearGradient id="paint38_linear_93_284" x1="277.865" y1="420.336" x2="270.748" y2="409.798" gradientUnits="userSpaceOnUse">
<stop stop-color="#AA80F9"/>
<stop offset="0.9964" stop-color="#6165D7"/>
</linearGradient>
<linearGradient id="paint39_linear_93_284" x1="413.037" y1="281.634" x2="240.186" y2="355.16" gradientUnits="userSpaceOnUse">
<stop offset="0.0036" stop-color="#E38DDD"/>
<stop offset="1" stop-color="#9571F6"/>
</linearGradient>
<linearGradient id="paint40_linear_93_284" x1="177.555" y1="412.047" x2="219.663" y2="483.961" gradientUnits="userSpaceOnUse">
<stop offset="0.0036" stop-color="#E38DDD"/>
<stop offset="1" stop-color="#9571F6"/>
</linearGradient>
<linearGradient id="paint41_linear_93_284" x1="119.259" y1="342.664" x2="157.001" y2="405.624" gradientUnits="userSpaceOnUse">
<stop offset="0.0036" stop-color="#E38DDD"/>
<stop offset="1" stop-color="#9571F6"/>
</linearGradient>
<linearGradient id="paint42_linear_93_284" x1="65.8467" y1="414.652" x2="134.143" y2="414.652" gradientUnits="userSpaceOnUse">
<stop offset="0.0036" stop-color="#E38DDD"/>
<stop offset="1" stop-color="#9571F6"/>
</linearGradient>
</defs>
</svg>
