<svg width="500" height="500" viewBox="0 0 500 500" fill="none" xmlns="http://www.w3.org/2000/svg">
<path d="M430.83 216.991C421.676 157.073 384.144 83.459 309.995 75.7552C309.995 75.7552 253.698 68.9075 198.201 79.286C165.264 85.4455 136.383 103.781 118.108 130.134C99.8329 156.487 93.7286 188.621 101.137 219.256C105.949 239.154 109.2 259.748 108.308 280.195C106.755 315.78 107.648 348.996 142.183 370.218C173.018 389.167 211.825 405.879 248.847 408.806C274.008 410.795 302.223 407.576 326.472 401.026C450.053 367.643 439.984 276.909 430.83 216.991Z" fill="#F4F7FA"/>
<path d="M261.88 344.978C251.381 347.885 243.206 335.787 249.822 327.132C251.876 324.445 253.826 321.548 255.622 318.426C268.957 295.241 262.065 280.02 274.074 238.05C281.668 211.512 287.235 193.069 303.271 186.562C315.838 181.463 333.329 184.304 341.84 194.214C348.917 202.453 350.613 216.545 349.785 226.079C349.11 233.849 346.722 239.003 350.008 244.033C353.367 249.173 358.689 248.12 362.03 252.147C368.804 260.312 358.853 279.032 357.245 282.057C339.353 315.711 300.069 331.411 282.85 338.052C277.048 340.29 270.032 342.721 261.88 344.978Z" fill="url(#paint0_linear_94_405)"/>
<mask id="mask0_94_405" style="mask-type:luminance" maskUnits="userSpaceOnUse" x="245" y="184" width="120" height="163">
<path d="M258.503 345.886C248.917 348.382 241.663 337.122 247.961 329.477C250.701 326.15 253.291 322.477 255.621 318.426C268.957 295.241 262.064 280.02 274.074 238.05C281.668 211.512 287.235 193.069 303.271 186.562C315.838 181.463 333.329 184.304 341.84 194.214C348.917 202.453 350.613 216.545 349.785 226.079C349.11 233.849 346.722 239.003 350.008 244.033C353.366 249.173 358.689 248.12 362.03 252.147C368.804 260.312 358.853 279.032 357.244 282.057C339.353 315.711 300.069 331.411 282.85 338.052C276.262 340.594 268.107 343.384 258.503 345.886Z" fill="white"/>
</mask>
<g mask="url(#mask0_94_405)">
<g opacity="0.5">
<path d="M207.582 356.699L207.48 355.792C224.311 353.908 239.288 350.354 251.996 345.227C270.726 337.671 283.951 326.882 291.303 313.158C297.062 302.407 299.123 290.257 301.976 273.442C304.254 260.017 304.657 250.296 305.013 241.72C305.478 230.502 305.846 221.641 310.229 209.77C314.676 197.726 321.916 186.478 331.748 176.338L332.403 176.973C322.66 187.021 315.488 198.162 311.085 210.086C306.752 221.822 306.387 230.62 305.925 241.758C305.567 250.361 305.163 260.113 302.875 273.595C300.116 289.859 297.937 302.706 292.107 313.589C284.652 327.506 271.271 338.436 252.338 346.074C239.553 351.231 224.495 354.806 207.582 356.699Z" fill="white"/>
<path d="M304.009 264.175L303.603 263.858C303.526 263.797 295.761 257.662 289.323 246.402C283.382 236.011 277.374 218.995 282.491 196.942L283.38 197.149C278.33 218.913 284.255 235.7 290.116 245.95C295.634 255.601 302.114 261.415 303.766 262.811C317.067 240.901 333.659 229.278 345.273 223.379C357.956 216.935 367.629 215.732 367.725 215.721L367.833 216.627C367.738 216.638 358.194 217.831 345.647 224.212C334.072 230.099 317.498 241.734 304.275 263.733L304.009 264.175Z" fill="white"/>
<path d="M296.757 300.251L296.643 299.939C296.59 299.791 291.182 284.973 282.854 271.181C274.58 257.478 249.615 247.032 249.363 246.928L249.712 246.085C249.966 246.19 275.205 256.749 283.635 270.709C291.337 283.465 296.554 297.089 297.385 299.314C326.732 297.915 372.119 241.736 372.576 241.167L373.288 241.738C373.172 241.881 361.6 256.257 346.522 270.57C326.228 289.834 309.596 299.816 297.088 300.24L296.757 300.251Z" fill="white"/>
<path d="M274.894 344.904C264.726 344.904 258.227 344.055 258.135 344.043L257.233 343.922L257.869 343.272C267.921 332.987 270.166 320.048 264.542 304.814C260.331 293.41 253.052 284.953 252.979 284.869L253.667 284.271C253.741 284.356 261.13 292.94 265.398 304.498C270.953 319.546 268.793 332.921 259.158 343.243C262.459 343.6 274.515 344.672 290.277 343.347C307.33 341.911 332.333 337.294 354.601 323.446L397.874 296.536L398.356 297.311L355.083 324.221C332.653 338.169 307.489 342.816 290.33 344.258C284.623 344.737 279.399 344.904 274.894 344.904Z" fill="white"/>
</g>
</g>
<path d="M240.562 346.046C255.141 354.586 274.931 363.384 297.463 365.608C303.213 366.175 338.734 369.68 342.807 354.93C344.242 349.734 340.563 346.661 342.359 339.681C344.488 331.409 351.017 330.43 359.242 323.335C364.15 319.102 378.513 306.712 374.173 292.763C371.579 284.427 362.424 275.912 353.308 273.154C339.936 269.108 329.269 278.243 311.487 294.011C295.724 307.989 294.758 313.094 283.231 322.962C274.677 330.285 261.253 339.418 240.562 346.046Z" fill="url(#paint1_linear_94_405)"/>
<mask id="mask1_94_405" style="mask-type:luminance" maskUnits="userSpaceOnUse" x="240" y="272" width="135" height="95">
<path d="M240.562 346.046C255.141 354.586 274.931 363.384 297.463 365.608C303.213 366.175 338.734 369.68 342.807 354.93C344.242 349.734 340.563 346.661 342.359 339.681C344.488 331.409 351.017 330.43 359.242 323.335C364.15 319.102 378.513 306.712 374.173 292.763C371.579 284.427 362.424 275.912 353.308 273.154C339.936 269.108 329.269 278.243 311.487 294.011C295.724 307.989 294.758 313.094 283.231 322.962C274.677 330.285 261.253 339.418 240.562 346.046Z" fill="white"/>
</mask>
<g mask="url(#mask1_94_405)">
<g opacity="0.5">
<path d="M248.055 346.243C238.941 346.243 230.008 344.961 221.288 342.393C204.381 337.414 188.884 327.992 175.226 314.39L175.869 313.744C189.419 327.238 204.786 336.582 221.546 341.518C243.869 348.092 267.639 346.155 292.196 335.761C317.781 324.933 337.809 307.641 350.106 295.041C358.61 286.328 364.632 274.721 368.005 260.543L368.892 260.754C365.481 275.095 359.38 286.846 350.759 295.679C338.404 308.338 318.276 325.714 292.552 336.602C277.377 343.024 262.491 346.243 248.055 346.243Z" fill="white"/>
<path d="M323.172 318.969L323.108 318.564C323.06 318.266 318.595 288.513 337.495 269.444L338.143 270.087C320.768 287.617 323.493 314.401 323.953 318.015C366.494 315.7 379.451 292.517 382.415 285.447C382.498 285.249 382.553 285.127 382.578 285.085L383.364 285.549L382.971 285.317L383.369 285.54C383.348 285.58 383.312 285.668 383.257 285.8C380.231 293.017 366.985 316.735 323.581 318.949L323.172 318.969Z" fill="white"/>
<path d="M334.912 353.246C334.862 353.246 334.812 353.246 334.762 353.246C325.197 353.217 310.104 350.263 292.519 336.357L292.327 336.206L292.347 335.963C292.365 335.735 294.361 312.928 310.292 289.549L326.338 265.999L327.092 266.513L311.045 290.062C296.135 311.945 293.537 333.301 293.279 335.796C302.881 343.35 317.812 352.282 334.764 352.334C334.812 352.334 334.861 352.334 334.909 352.334C344.994 352.334 351.065 349.138 351.125 349.105L351.557 349.909C351.302 350.046 345.22 353.246 334.912 353.246Z" fill="white"/>
</g>
</g>
<path d="M351.503 155.754C353.05 156.54 354.993 155.819 355.844 154.144C356.694 152.469 356.129 150.475 354.583 149.69C354.503 149.649 354.421 149.615 354.339 149.582C354.626 148.655 354.843 147.721 354.988 146.787C355.077 146.787 355.166 146.785 355.256 146.777C357.021 146.62 358.421 144.999 358.384 143.156C358.347 141.313 356.887 139.946 355.122 140.103C355.03 140.111 354.939 140.126 354.849 140.142C354.665 139.229 354.412 138.337 354.094 137.473C354.175 137.426 354.256 137.376 354.335 137.321C355.844 136.263 356.327 134.176 355.413 132.658C354.498 131.141 352.533 130.768 351.024 131.826C350.946 131.88 350.873 131.939 350.802 131.998C350.205 131.339 349.551 130.728 348.844 130.171C348.893 130.089 348.942 130.006 348.986 129.92C349.836 128.245 350.948 126.416 349.389 125.655C345.783 123.894 344.235 125.401 343.385 127.076C343.341 127.163 343.303 127.251 343.267 127.339C342.399 127.097 341.52 126.929 340.636 126.837C340.641 126.744 340.646 126.65 340.644 126.556C340.607 124.713 341.154 123.716 339.382 123.681C335.52 123.606 334.217 125.283 334.253 127.125C334.255 127.222 334.263 127.316 334.273 127.41C333.388 127.662 332.519 127.985 331.672 128.375C331.632 128.292 331.59 128.211 331.543 128.131C330.628 126.614 328.663 126.241 327.154 127.299C325.644 128.357 325.161 130.444 326.076 131.962C326.122 132.039 326.174 132.112 326.226 132.184C325.557 132.852 324.931 133.578 324.353 134.357C324.278 134.311 324.202 134.265 324.122 134.224C322.575 133.439 320.632 134.16 319.781 135.835C318.931 137.509 319.496 139.504 321.042 140.289C321.122 140.33 321.204 140.364 321.286 140.397C320.999 141.323 320.782 142.257 320.637 143.191C320.548 143.192 320.459 143.193 320.369 143.201C318.604 143.359 317.204 144.98 317.241 146.823C317.278 148.666 318.738 150.033 320.503 149.875C320.595 149.867 320.686 149.852 320.776 149.836C320.96 150.75 321.213 151.642 321.531 152.505C321.45 152.553 321.369 152.602 321.291 152.657C319.781 153.715 319.298 155.803 320.213 157.32C321.127 158.837 324.154 159.542 325.663 158.485C325.741 158.43 324.752 158.04 324.824 157.98C325.42 158.639 326.074 159.25 326.782 159.808C326.732 159.889 326.683 159.972 326.639 160.059C325.789 161.733 326.353 163.728 327.9 164.513C329.447 165.298 331.39 164.577 332.24 162.902C332.284 162.816 332.322 162.728 332.359 162.639C333.226 162.881 334.106 163.049 334.99 163.141C334.984 163.235 334.98 163.328 334.982 163.422C335.019 165.265 336.479 166.632 338.244 166.474C340.008 166.317 341.409 164.696 341.372 162.853C341.37 162.756 341.362 162.662 341.352 162.568C342.237 162.316 343.107 161.994 343.953 161.603C343.993 161.686 344.035 161.767 344.083 161.847C344.997 163.364 346.962 163.737 348.472 162.679C349.981 161.621 350.464 159.534 349.55 158.016C349.503 157.939 349.452 157.866 349.4 157.794C350.068 157.125 350.694 156.399 351.273 155.621C351.347 155.668 351.423 155.714 351.503 155.754ZM332.222 155.999C326.607 153.148 324.557 145.907 327.644 139.827C330.732 133.746 337.787 131.128 343.402 133.979C349.018 136.831 351.068 144.071 347.98 150.152C344.893 156.232 337.838 158.85 332.222 155.999Z" fill="url(#paint2_linear_94_405)"/>
<path d="M355.255 146.777C357.02 146.619 358.42 144.998 358.383 143.155C358.346 141.312 356.886 139.945 355.121 140.103C355.029 140.111 354.939 140.125 354.849 140.141C354.664 139.228 354.412 138.336 354.093 137.472C354.174 137.425 354.255 137.376 354.334 137.321C355.844 136.263 357.711 133.707 356.646 132.292C354.625 129.605 352.532 130.768 351.023 131.826C350.945 131.88 350.873 131.938 350.801 131.998C350.204 131.338 349.55 130.728 348.843 130.17C348.893 130.089 348.941 130.006 348.985 129.919C349.448 129.008 349.489 128.003 349.183 127.148C347.725 129.715 346.287 132.292 344.874 134.884C349.354 138.166 350.78 144.636 347.98 150.151C345.607 154.825 340.89 157.45 336.284 157.121C336.078 157.653 335.877 158.189 335.657 158.717C335.06 160.149 334.381 161.552 333.702 162.952C334.129 163.033 334.558 163.096 334.988 163.141C334.983 163.234 334.979 163.328 334.98 163.422C335.017 165.265 336.136 166.831 339.334 166.661C341.104 166.567 341.408 164.695 341.371 162.852C341.369 162.756 341.361 162.662 341.351 162.568C342.236 162.316 343.106 161.993 343.952 161.603C343.992 161.686 344.034 161.767 344.082 161.847C344.996 163.364 348.168 164.009 349.677 162.951C351.187 161.893 350.463 159.534 349.549 158.016C349.502 157.938 349.451 157.866 349.398 157.794C350.067 157.126 350.693 156.4 351.272 155.621C351.346 155.668 351.422 155.714 351.502 155.754C353.049 156.539 354.992 155.818 355.843 154.144C356.693 152.469 356.128 150.475 354.582 149.689C354.501 149.649 354.42 149.614 354.338 149.582C354.625 148.655 354.842 147.721 354.987 146.787C355.076 146.786 355.165 146.785 355.255 146.777Z" fill="url(#paint3_linear_94_405)"/>
<path d="M353.166 155.944C354.713 156.729 356.656 156.008 357.506 154.333C358.357 152.658 357.792 150.664 356.246 149.879C356.165 149.838 356.084 149.804 356.002 149.771C356.289 148.845 356.506 147.911 356.651 146.976C356.74 146.976 356.829 146.975 356.919 146.967C358.684 146.809 360.084 145.188 360.047 143.345C360.01 141.502 358.55 140.135 356.785 140.292C356.693 140.301 356.602 140.315 356.512 140.331C356.328 139.418 356.075 138.526 355.757 137.662C355.838 137.615 355.919 137.566 355.998 137.51C357.507 136.453 357.99 134.365 357.076 132.848C356.161 131.33 354.196 130.958 352.687 132.015C352.609 132.07 352.537 132.128 352.465 132.187C351.868 131.528 351.214 130.917 350.507 130.36C350.556 130.278 350.605 130.196 350.649 130.109C351.499 128.434 350.935 126.44 349.388 125.655C347.842 124.869 345.899 125.59 345.048 127.265C345.004 127.352 344.966 127.44 344.93 127.528C344.062 127.286 343.183 127.119 342.299 127.026C342.304 126.933 342.309 126.84 342.307 126.745C342.27 124.902 340.809 123.536 339.045 123.693C337.28 123.85 335.88 125.472 335.917 127.315C335.918 127.411 335.927 127.505 335.936 127.599C335.051 127.851 334.182 128.174 333.335 128.564C333.295 128.482 333.253 128.4 333.206 128.321C332.291 126.803 330.326 126.431 328.817 127.488C327.307 128.546 326.824 130.634 327.739 132.151C327.786 132.229 327.837 132.301 327.889 132.373C327.22 133.042 326.594 133.768 326.016 134.547C325.941 134.5 325.865 134.454 325.785 134.413C324.238 133.628 322.295 134.349 321.445 136.024C320.594 137.699 321.159 139.693 322.706 140.478C322.786 140.519 322.868 140.553 322.95 140.586C322.662 141.512 322.446 142.446 322.3 143.38C322.212 143.381 322.123 143.382 322.032 143.39C320.268 143.548 318.867 145.169 318.904 147.012C318.941 148.855 320.401 150.222 322.166 150.064C322.258 150.056 322.349 150.042 322.439 150.025C322.623 150.939 322.876 151.831 323.194 152.694C323.113 152.742 323.032 152.791 322.953 152.846C321.444 153.904 320.961 155.992 321.875 157.509C322.79 159.027 324.755 159.399 326.264 158.341C326.342 158.287 326.415 158.229 326.487 158.169C327.083 158.828 327.737 159.439 328.444 159.997C328.395 160.078 328.346 160.161 328.302 160.248C327.452 161.922 328.016 163.917 329.563 164.702C331.11 165.487 333.053 164.766 333.903 163.092C333.947 163.005 333.985 162.917 334.022 162.829C334.889 163.071 335.768 163.238 336.652 163.331C336.647 163.424 336.643 163.517 336.644 163.612C336.681 165.455 338.142 166.821 339.906 166.664C341.671 166.506 343.072 164.885 343.035 163.042C343.033 162.946 343.025 162.851 343.015 162.758C343.9 162.506 344.77 162.183 345.616 161.793C345.656 161.875 345.698 161.957 345.745 162.036C346.66 163.553 348.625 163.926 350.134 162.868C351.644 161.811 352.127 159.723 351.213 158.206C351.166 158.128 351.114 158.055 351.062 157.983C351.731 157.315 352.357 156.589 352.936 155.81C353.01 155.857 353.086 155.903 353.166 155.944ZM333.886 156.188C328.27 153.337 326.22 146.096 329.308 140.016C332.395 133.935 339.45 131.317 345.065 134.169C350.681 137.02 352.731 144.26 349.644 150.341C346.556 156.422 339.501 159.039 333.886 156.188Z" fill="url(#paint4_linear_94_405)"/>
<path d="M310.128 124.153C313.158 125.692 316.964 124.279 318.629 120.999C320.295 117.718 319.189 113.811 316.16 112.273C316.003 112.194 315.842 112.127 315.682 112.063C316.245 110.247 316.669 108.418 316.954 106.588C317.127 106.587 317.302 106.584 317.479 106.569C320.935 106.26 323.679 103.084 323.606 99.4738C323.534 95.8635 320.673 93.1864 317.217 93.4946C317.036 93.5108 316.858 93.5394 316.682 93.5708C316.321 91.7817 315.826 90.034 315.202 88.3425C315.361 88.2495 315.519 88.1533 315.674 88.0451C318.631 85.9732 319.577 81.8839 317.786 78.9114C315.995 75.9389 312.145 75.2088 309.188 77.2808C309.036 77.387 308.894 77.5017 308.753 77.6181C307.585 76.3269 306.304 75.1301 304.917 74.038C305.015 73.8782 305.11 73.7165 305.197 73.5464C306.862 70.2658 309.039 66.6823 305.985 65.1916C298.922 61.7433 295.891 64.6951 294.225 67.9758C294.139 68.1457 294.064 68.3184 293.993 68.4911C292.293 68.0166 290.571 67.6885 288.839 67.5075C288.85 67.3251 288.858 67.1424 288.855 66.9573C288.782 63.3472 289.854 61.3934 286.384 61.3261C278.817 61.1789 276.265 64.4631 276.337 68.0731C276.341 68.2618 276.357 68.4463 276.375 68.6296C274.641 69.1238 272.938 69.7557 271.281 70.52C271.202 70.3589 271.12 70.199 271.027 70.0434C269.236 67.0709 265.386 66.341 262.429 68.413C259.472 70.4849 258.526 74.5742 260.317 77.5467C260.409 77.699 260.509 77.8414 260.611 77.9818C259.302 79.2917 258.075 80.7139 256.942 82.2395C256.795 82.1476 256.647 82.0577 256.49 81.9781C253.46 80.4398 249.654 81.8522 247.988 85.1328C246.322 88.4134 247.428 92.3199 250.458 93.8581C250.615 93.9378 250.775 94.0048 250.936 94.0689C250.373 95.8841 249.949 97.7137 249.664 99.5438C249.49 99.5444 249.316 99.5472 249.139 99.5628C245.682 99.8712 242.939 103.047 243.011 106.658C243.084 110.268 245.944 112.945 249.401 112.637C249.582 112.621 249.759 112.592 249.936 112.561C250.297 114.35 250.791 116.098 251.416 117.789C251.257 117.882 251.098 117.979 250.944 118.087C247.986 120.159 247.041 124.248 248.832 127.221C250.623 130.193 256.553 131.574 259.51 129.502C259.661 129.396 257.724 128.63 257.865 128.514C259.033 129.805 260.314 131.002 261.7 132.094C261.603 132.254 261.507 132.416 261.421 132.586C259.755 135.866 260.861 139.773 263.891 141.311C266.921 142.849 270.727 141.437 272.393 138.156C272.479 137.986 272.553 137.814 272.625 137.641C274.324 138.115 276.046 138.443 277.778 138.625C277.767 138.807 277.759 138.99 277.763 139.175C277.835 142.785 280.696 145.462 284.153 145.154C287.609 144.846 290.353 141.669 290.28 138.059C290.277 137.87 290.261 137.686 290.242 137.502C291.976 137.008 293.679 136.376 295.336 135.612C295.415 135.773 295.497 135.933 295.591 136.088C297.382 139.061 301.231 139.791 304.188 137.719C307.146 135.647 308.091 131.558 306.3 128.585C306.208 128.433 306.108 128.291 306.006 128.15C307.315 126.84 308.542 125.418 309.675 123.892C309.822 123.984 309.971 124.074 310.128 124.153ZM272.359 124.633C261.358 119.047 257.343 104.864 263.391 92.9527C269.439 81.0414 283.259 75.9133 294.259 81.4984C305.259 87.0836 309.275 101.267 303.227 113.178C297.179 125.09 283.359 130.218 272.359 124.633Z" fill="url(#paint5_linear_94_405)"/>
<path d="M317.479 106.568C320.935 106.26 323.679 103.083 323.606 99.4732C323.534 95.8629 320.673 93.186 317.216 93.4942C317.036 93.5102 316.858 93.5389 316.682 93.5702C316.321 91.781 315.826 90.0334 315.202 88.3419C315.361 88.249 315.519 88.1527 315.674 88.0443C318.631 85.9725 322.29 80.9661 320.203 78.1931C316.243 72.93 312.145 75.2082 309.188 77.28C309.036 77.3862 308.894 77.5008 308.753 77.6172C307.585 76.326 306.304 75.1293 304.918 74.0372C305.015 73.8773 305.11 73.7156 305.197 73.5458C306.103 71.7602 306.183 69.7917 305.585 68.1182C302.728 73.1457 299.91 78.1943 297.143 83.2705C305.918 89.7012 308.712 102.374 303.227 113.178C298.578 122.334 289.338 127.474 280.316 126.83C279.914 127.874 279.518 128.923 279.087 129.957C277.918 132.762 276.589 135.51 275.259 138.253C276.095 138.411 276.936 138.535 277.778 138.624C277.768 138.806 277.759 138.989 277.763 139.174C277.835 142.784 280.027 145.851 286.292 145.519C289.757 145.335 290.353 141.668 290.281 138.058C290.277 137.869 290.261 137.685 290.242 137.502C291.976 137.007 293.679 136.375 295.337 135.611C295.415 135.772 295.497 135.932 295.591 136.087C297.382 139.06 303.595 140.323 306.552 138.251C309.51 136.179 308.091 131.557 306.3 128.584C306.209 128.432 306.108 128.29 306.006 128.149C307.316 126.839 308.542 125.417 309.675 123.891C309.822 123.984 309.971 124.073 310.128 124.153C313.157 125.691 316.964 124.279 318.629 120.998C320.295 117.718 319.189 113.811 316.159 112.273C316.002 112.193 315.842 112.126 315.682 112.062C316.245 110.247 316.669 108.417 316.954 106.587C317.127 106.587 317.302 106.584 317.479 106.568Z" fill="url(#paint6_linear_94_405)"/>
<path d="M313.387 124.524C316.417 126.062 320.223 124.649 321.889 121.369C323.554 118.088 322.449 114.182 319.419 112.643C319.262 112.564 319.102 112.497 318.941 112.433C319.504 110.617 319.928 108.788 320.213 106.958C320.387 106.957 320.561 106.954 320.738 106.939C324.195 106.63 326.938 103.454 326.866 99.8438C326.793 96.2334 323.933 93.5566 320.476 93.8647C320.295 93.8808 320.118 93.9094 319.941 93.9408C319.58 92.1516 319.085 90.404 318.461 88.7125C318.62 88.6195 318.779 88.5233 318.933 88.4151C321.89 86.3432 322.836 82.2539 321.045 79.2812C319.254 76.3087 315.405 75.5788 312.447 77.6506C312.296 77.7568 312.153 77.8715 312.012 77.9878C310.844 76.6966 309.563 75.5 308.177 74.4079C308.275 74.2481 308.37 74.0862 308.456 73.9163C310.122 70.6357 309.016 66.7291 305.986 65.1909C302.957 63.6527 299.15 65.0651 297.485 68.3457C297.398 68.5156 297.324 68.6882 297.252 68.8612C295.553 68.3866 293.831 68.0585 292.099 67.8775C292.11 67.695 292.118 67.5124 292.114 67.3273C292.042 63.7172 289.181 61.0403 285.724 61.3484C282.268 61.6564 279.524 64.833 279.597 68.4431C279.6 68.6319 279.616 68.8163 279.635 68.9996C277.901 69.4939 276.198 70.1257 274.541 70.8901C274.462 70.7291 274.38 70.5691 274.287 70.4136C272.496 67.4411 268.646 66.711 265.689 68.7831C262.731 70.8552 261.786 74.9444 263.577 77.9168C263.669 78.0691 263.769 78.2116 263.871 78.352C262.562 79.6618 261.335 81.0839 260.202 82.6097C260.055 82.5178 259.907 82.4279 259.749 82.3482C256.72 80.8099 252.913 82.2223 251.248 85.5029C249.582 88.7835 250.688 92.69 253.718 94.2283C253.875 94.3079 254.035 94.3749 254.196 94.4391C253.633 96.2543 253.208 98.0838 252.924 99.914C252.75 99.9145 252.576 99.9174 252.399 99.933C248.942 100.241 246.199 103.418 246.271 107.028C246.343 110.638 249.204 113.315 252.661 113.007C252.842 112.991 253.019 112.963 253.195 112.931C253.557 114.72 254.051 116.468 254.675 118.159C254.516 118.252 254.358 118.349 254.204 118.457C251.246 120.529 250.301 124.618 252.092 127.591C253.883 130.563 257.732 131.293 260.69 129.221C260.841 129.115 260.984 129 261.125 128.884C262.293 130.175 263.574 131.372 264.96 132.464C264.863 132.624 264.767 132.786 264.681 132.955C263.015 136.236 264.121 140.143 267.151 141.681C270.18 143.219 273.987 141.807 275.652 138.526C275.739 138.356 275.813 138.184 275.885 138.011C277.584 138.485 279.306 138.813 281.038 138.994C281.027 139.177 281.019 139.359 281.023 139.545C281.095 143.155 283.956 145.832 287.413 145.524C290.869 145.215 293.613 142.039 293.54 138.429C293.537 138.24 293.521 138.056 293.502 137.872C295.236 137.378 296.939 136.746 298.596 135.982C298.675 136.143 298.757 136.303 298.851 136.458C300.642 139.431 304.491 140.161 307.448 138.089C310.406 136.017 311.351 131.928 309.56 128.955C309.469 128.803 309.368 128.66 309.266 128.52C310.576 127.21 311.802 125.788 312.935 124.262C313.082 124.354 313.23 124.444 313.387 124.524ZM275.618 125.003C264.618 119.418 260.603 105.234 266.65 93.3229C272.698 81.4117 286.518 76.2835 297.518 81.8687C308.519 87.4539 312.534 101.637 306.486 113.548C300.439 125.46 286.619 130.588 275.618 125.003Z" fill="url(#paint7_linear_94_405)"/>
<path d="M433.032 386.521L74.0342 383.418V392.6C74.0342 395.092 75.6 397.211 77.7206 397.588L179.234 415.668C180.439 415.883 181.661 415.94 182.877 415.838L429.131 395.224C431.329 395.04 433.032 392.914 433.032 390.354V386.521Z" fill="#BFC8D6"/>
<path d="M307.028 210.821V364.42C307.028 366.357 306.323 368.165 305.194 369.507C304.098 370.82 302.589 371.685 300.924 371.809L135.964 383.977L74.46 388.528H74.4507L74.0343 388.537L72.6979 388.617C68.6145 388.918 65.2432 385.711 65.2432 381.47V211.556C65.2432 207.315 68.6653 203.768 72.7487 203.768H300.918C304.285 203.768 307.028 206.987 307.028 210.821Z" fill="#BFC8D6"/>
<path d="M310.677 210.821V364.42C310.677 367.38 309.034 370.023 306.745 371.186C306.712 371.203 306.67 371.22 306.636 371.237C306.418 371.343 306.192 371.44 305.963 371.518C305.912 371.536 305.859 371.555 305.808 371.573C305.767 371.583 305.724 371.597 305.687 371.606C305.52 371.657 305.353 371.694 305.182 371.726C304.979 371.768 304.771 371.795 304.558 371.809L303.401 371.885L139.221 383.966H139.212L76.3833 388.598C75.7776 388.644 75.1856 388.639 74.6216 388.533C74.566 388.524 74.515 388.528 74.4597 388.528H74.4504C74.3116 388.528 74.1271 388.444 73.9883 388.403C71.0563 387.602 68.8926 384.86 68.8926 381.47V211.556C68.8926 207.315 72.3047 203.768 76.3881 203.768H304.558C307.924 203.768 310.677 206.987 310.677 210.821Z" fill="white"/>
<path d="M297.45 360.979L84.932 375.569C81.6093 375.797 78.9092 373.176 78.9092 369.714V220.954C78.9092 217.492 81.6093 214.674 84.932 214.659L297.45 213.743C300.225 213.731 302.47 216.278 302.47 219.431V354.924C302.47 358.078 300.225 360.789 297.45 360.979Z" fill="#D8DEE8"/>
<path d="M198.53 208.525C198.53 210.104 197.356 211.387 195.906 211.392C194.454 211.397 193.275 210.117 193.275 208.535C193.275 206.953 194.454 205.669 195.906 205.668C197.356 205.667 198.53 206.946 198.53 208.525Z" fill="white"/>
<path opacity="0.48" d="M76.3851 388.604L303.403 371.893L304.558 371.808C306.101 371.694 307.505 370.931 308.577 369.774C292.24 368.88 282.094 363.082 275.548 357.092C262.403 345.062 264.683 333.199 250.508 325.29C232.828 315.424 218.927 327.925 205.51 315.591C197.377 308.113 201.37 302.537 191.361 291.363C180.276 278.986 173.059 283.147 161.919 272.008C147.833 257.923 154.878 246.965 142.744 236.853C128.025 224.585 112.15 235.94 98.1383 224.175C92.0947 219.101 88.7785 211.724 87.047 203.878H76.3862C72.3032 203.878 68.9834 207.316 68.9834 211.557V381.47C68.9831 385.711 72.3023 388.904 76.3851 388.604Z" fill="white"/>
<path d="M315.309 370.875L74.0342 388.556L179.234 407.292C180.439 407.507 181.661 407.564 182.877 407.462L433.032 386.521L319.147 370.996C317.873 370.822 316.589 370.782 315.309 370.875Z" fill="url(#paint8_linear_94_405)"/>
<path d="M109.239 388.708L310.108 373.77L372.275 382.176L173.137 398.145L109.239 388.708Z" fill="#D8DEE8"/>
<path opacity="0.3" d="M292.429 203.768V357.14C292.429 358.555 292.146 359.938 291.734 361.247C291.156 363.101 290.164 364.808 288.915 366.274C286.51 369.095 283.027 371.014 279.142 371.31L113.933 383.778L104.19 384.513C101.84 384.693 99.6139 384.369 97.6206 383.639C93.6159 382.182 90.6359 379.088 89.4475 375.139C89.0868 373.96 88.9648 372.707 88.9648 371.393V203.768H292.429Z" fill="#BFC8D6"/>
<path d="M282.844 110.388L107.843 104.996C99.3628 104.735 92.4473 110.916 92.4473 118.803V368.158C92.4473 376.045 99.3626 381.917 107.843 381.277L282.844 368.073C290.175 367.52 296.086 361.178 296.086 353.905V123.965C296.086 116.692 290.175 110.614 282.844 110.388Z" fill="url(#paint9_linear_94_405)"/>
<path opacity="0.74" d="M97.3838 369.296V117.445C97.3838 112.905 101.36 109.341 106.249 109.484L284.231 114.657C288.458 114.78 291.874 118.285 291.874 122.486V355.573C291.874 359.774 288.458 363.432 284.231 363.743L106.249 376.862C101.361 377.222 97.3838 373.835 97.3838 369.296Z" fill="white"/>
<path d="M282.844 110.388L107.843 104.996C99.3629 104.735 92.4473 110.916 92.4473 118.803V129.047L296.086 133.412V123.965C296.086 116.692 290.175 110.614 282.844 110.388Z" fill="url(#paint10_linear_94_405)"/>
<path d="M119.785 118.127C119.785 120.682 117.561 122.699 114.812 122.632C112.058 122.566 109.82 120.433 109.82 117.869C109.82 115.305 112.058 113.288 114.812 113.364C117.561 113.44 119.785 115.573 119.785 118.127Z" fill="white"/>
<path d="M137.1 118.575C137.1 121.112 134.906 123.116 132.194 123.051C129.476 122.985 127.269 120.867 127.269 118.32C127.269 115.773 129.476 113.77 132.194 113.845C134.906 113.92 137.1 116.037 137.1 118.575Z" fill="white"/>
<path d="M154.185 119.017C154.185 121.537 152.02 123.528 149.344 123.464C146.662 123.399 144.484 121.296 144.484 118.766C144.484 116.236 146.662 114.245 149.344 114.319C152.02 114.394 154.185 116.497 154.185 119.017Z" fill="white"/>
<path d="M115.383 185.656C115.328 186.516 115.141 187.289 114.82 187.977C114.508 188.664 114.086 189.25 113.555 189.734C113.023 190.219 112.391 190.594 111.656 190.859C110.922 191.117 110.109 191.246 109.219 191.246C108.516 191.246 107.863 191.156 107.262 190.977C106.668 190.789 106.133 190.523 105.656 190.18C105.219 189.859 104.828 189.473 104.484 189.02C104.148 188.566 103.863 188.066 103.629 187.52C103.402 186.973 103.227 186.371 103.102 185.715C102.984 185.059 102.926 184.363 102.926 183.629V181.332C102.926 180.645 102.98 179.992 103.09 179.375C103.199 178.75 103.363 178.172 103.582 177.641C103.832 176.992 104.16 176.414 104.566 175.906C104.973 175.398 105.434 174.969 105.949 174.617C106.41 174.32 106.914 174.094 107.461 173.938C108.016 173.773 108.609 173.691 109.242 173.691C110.18 173.691 111.012 173.824 111.738 174.09C112.473 174.355 113.098 174.734 113.613 175.227C114.129 175.719 114.535 176.32 114.832 177.031C115.129 177.742 115.316 178.543 115.395 179.434H112.113C112.082 178.926 112.004 178.48 111.879 178.098C111.762 177.715 111.59 177.395 111.363 177.137C111.129 176.887 110.836 176.699 110.484 176.574C110.141 176.441 109.727 176.375 109.242 176.375C108.984 176.375 108.742 176.402 108.516 176.457C108.297 176.512 108.094 176.594 107.906 176.703C107.586 176.891 107.312 177.16 107.086 177.512C106.867 177.855 106.691 178.258 106.559 178.719C106.457 179.078 106.383 179.477 106.336 179.914C106.289 180.344 106.266 180.809 106.266 181.309V183.629C106.266 184.309 106.301 184.918 106.371 185.457C106.449 185.988 106.566 186.453 106.723 186.852C106.832 187.125 106.961 187.367 107.109 187.578C107.266 187.789 107.441 187.965 107.637 188.105C107.848 188.262 108.082 188.379 108.34 188.457C108.605 188.527 108.898 188.562 109.219 188.562C109.648 188.562 110.035 188.508 110.379 188.398C110.723 188.289 111.016 188.117 111.258 187.883C111.5 187.648 111.691 187.348 111.832 186.98C111.973 186.613 112.059 186.172 112.09 185.656H115.383ZM128.449 183.523H121.441V188.34H129.633V191H118.137V173.938H129.598V176.621H121.441V180.922H128.449V183.523ZM138.152 184.625H135.656V191H132.363V173.938H138.082C139.027 173.938 139.883 174.051 140.648 174.277C141.414 174.496 142.07 174.82 142.617 175.25C143.156 175.68 143.57 176.215 143.859 176.855C144.156 177.496 144.305 178.238 144.305 179.082C144.305 179.691 144.23 180.242 144.082 180.734C143.941 181.219 143.738 181.652 143.473 182.035C143.199 182.426 142.871 182.766 142.488 183.055C142.113 183.344 141.691 183.594 141.223 183.805L144.891 190.848V191H141.363L138.152 184.625ZM135.656 181.953H138.094C138.602 181.953 139.047 181.883 139.43 181.742C139.82 181.594 140.137 181.383 140.379 181.109C140.582 180.891 140.734 180.629 140.836 180.324C140.945 180.02 141 179.68 141 179.305C141 178.852 140.93 178.453 140.789 178.109C140.656 177.758 140.453 177.469 140.18 177.242C139.938 177.039 139.641 176.883 139.289 176.773C138.938 176.664 138.535 176.609 138.082 176.609H135.656V181.953ZM159.316 176.621H154.055V191H150.75V176.621H145.559V173.938H159.316V176.621ZM161.918 173.938H171.785V176.598H168.457V188.352H171.785V191H161.918V188.352H165.164V176.598H161.918V173.938ZM186.434 183.934H179.121V191H175.816V173.938H187.348V176.621H179.121V181.262H186.434V183.934ZM190.746 173.938H200.613V176.598H197.285V188.352H200.613V191H190.746V188.352H193.992V176.598H190.746V173.938ZM216.281 185.656C216.227 186.516 216.039 187.289 215.719 187.977C215.406 188.664 214.984 189.25 214.453 189.734C213.922 190.219 213.289 190.594 212.555 190.859C211.82 191.117 211.008 191.246 210.117 191.246C209.414 191.246 208.762 191.156 208.16 190.977C207.566 190.789 207.031 190.523 206.555 190.18C206.117 189.859 205.727 189.473 205.383 189.02C205.047 188.566 204.762 188.066 204.527 187.52C204.301 186.973 204.125 186.371 204 185.715C203.883 185.059 203.824 184.363 203.824 183.629V181.332C203.824 180.645 203.879 179.992 203.988 179.375C204.098 178.75 204.262 178.172 204.48 177.641C204.73 176.992 205.059 176.414 205.465 175.906C205.871 175.398 206.332 174.969 206.848 174.617C207.309 174.32 207.812 174.094 208.359 173.938C208.914 173.773 209.508 173.691 210.141 173.691C211.078 173.691 211.91 173.824 212.637 174.09C213.371 174.355 213.996 174.734 214.512 175.227C215.027 175.719 215.434 176.32 215.73 177.031C216.027 177.742 216.215 178.543 216.293 179.434H213.012C212.98 178.926 212.902 178.48 212.777 178.098C212.66 177.715 212.488 177.395 212.262 177.137C212.027 176.887 211.734 176.699 211.383 176.574C211.039 176.441 210.625 176.375 210.141 176.375C209.883 176.375 209.641 176.402 209.414 176.457C209.195 176.512 208.992 176.594 208.805 176.703C208.484 176.891 208.211 177.16 207.984 177.512C207.766 177.855 207.59 178.258 207.457 178.719C207.355 179.078 207.281 179.477 207.234 179.914C207.188 180.344 207.164 180.809 207.164 181.309V183.629C207.164 184.309 207.199 184.918 207.27 185.457C207.348 185.988 207.465 186.453 207.621 186.852C207.73 187.125 207.859 187.367 208.008 187.578C208.164 187.789 208.34 187.965 208.535 188.105C208.746 188.262 208.98 188.379 209.238 188.457C209.504 188.527 209.797 188.562 210.117 188.562C210.547 188.562 210.934 188.508 211.277 188.398C211.621 188.289 211.914 188.117 212.156 187.883C212.398 187.648 212.59 187.348 212.73 186.98C212.871 186.613 212.957 186.172 212.988 185.656H216.281ZM227.238 187.438H222.117L221.109 191H217.641L223.23 173.938H226.219L231.703 191H228.234L227.238 187.438ZM222.926 184.637H226.465L224.719 178.355L222.926 184.637ZM245.801 176.621H240.539V191H237.234V176.621H232.043V173.938H245.801V176.621ZM248.402 173.938H258.27V176.598H254.941V188.352H258.27V191H248.402V188.352H251.648V176.598H248.402V173.938ZM273.996 183.723C273.996 184.457 273.93 185.156 273.797 185.82C273.664 186.477 273.473 187.086 273.223 187.648C272.957 188.211 272.629 188.727 272.238 189.195C271.848 189.664 271.402 190.055 270.902 190.367C270.449 190.641 269.949 190.852 269.402 191C268.863 191.156 268.281 191.234 267.656 191.234C266.992 191.234 266.379 191.148 265.816 190.977C265.254 190.805 264.742 190.562 264.281 190.25C263.828 189.922 263.422 189.527 263.062 189.066C262.703 188.598 262.402 188.07 262.16 187.484C261.941 186.945 261.773 186.359 261.656 185.727C261.547 185.094 261.492 184.426 261.492 183.723V181.238C261.492 180.488 261.555 179.777 261.68 179.105C261.812 178.434 262.004 177.812 262.254 177.242C262.496 176.703 262.789 176.215 263.133 175.777C263.484 175.34 263.887 174.965 264.34 174.652C264.785 174.348 265.285 174.113 265.84 173.949C266.395 173.785 266.996 173.703 267.645 173.703C268.301 173.703 268.914 173.789 269.484 173.961C270.062 174.125 270.582 174.363 271.043 174.676C271.504 174.973 271.906 175.332 272.25 175.754C272.602 176.176 272.902 176.641 273.152 177.148C273.426 177.727 273.633 178.359 273.773 179.047C273.922 179.734 273.996 180.465 273.996 181.238V183.723ZM270.656 181.215C270.656 180.777 270.633 180.363 270.586 179.973C270.547 179.574 270.48 179.207 270.387 178.871C270.27 178.449 270.113 178.074 269.918 177.746C269.723 177.41 269.492 177.137 269.227 176.926C269.016 176.77 268.777 176.648 268.512 176.562C268.254 176.477 267.965 176.434 267.645 176.434C267.34 176.434 267.062 176.473 266.812 176.551C266.57 176.629 266.352 176.742 266.156 176.891C265.891 177.109 265.664 177.383 265.477 177.711C265.297 178.039 265.156 178.422 265.055 178.859C264.977 179.195 264.918 179.562 264.879 179.961C264.848 180.359 264.832 180.777 264.832 181.215V183.723C264.832 184.137 264.848 184.535 264.879 184.918C264.91 185.301 264.965 185.656 265.043 185.984C265.129 186.398 265.254 186.777 265.418 187.121C265.59 187.457 265.789 187.73 266.016 187.941C266.227 188.129 266.465 188.273 266.73 188.375C267.004 188.477 267.312 188.527 267.656 188.527C267.984 188.527 268.285 188.48 268.559 188.387C268.832 188.293 269.074 188.156 269.285 187.977C269.551 187.758 269.773 187.484 269.953 187.156C270.141 186.82 270.289 186.441 270.398 186.02C270.484 185.691 270.547 185.332 270.586 184.941C270.633 184.551 270.656 184.145 270.656 183.723V181.215ZM287.754 191H284.473L279.727 179.996V191H276.41V173.938H279.727L284.438 184.895L284.449 173.938H287.754V191Z" fill="#40447D"/>
<path d="M265.659 285.065C265.659 322.468 235.521 354.803 198.228 357.296C160.808 359.798 130.379 331.323 130.379 293.689C130.379 256.055 160.808 223.701 198.228 221.432C235.521 219.17 265.659 247.662 265.659 285.065Z" fill="url(#paint11_linear_94_405)"/>
<path d="M202.369 224.499C218.659 224.499 233.803 230.692 245.012 241.937C256.267 253.228 262.466 268.544 262.466 285.065C262.466 302.349 255.763 319.05 243.593 332.093C231.419 345.14 215.233 352.959 198.014 354.11C196.566 354.207 195.103 354.256 193.665 354.256C177.387 354.256 162.251 348.073 151.044 336.848C139.777 325.562 133.572 310.234 133.572 293.689C133.572 257.773 162.663 226.788 198.421 224.619C199.732 224.54 201.06 224.499 202.369 224.499H202.369ZM202.366 221.306C200.998 221.306 199.616 221.347 198.228 221.432C160.808 223.701 130.379 256.055 130.379 293.689C130.379 329.782 158.365 357.449 193.665 357.449C195.173 357.449 196.695 357.399 198.228 357.296C235.521 354.803 265.659 322.468 265.659 285.065C265.659 249.055 237.727 221.304 202.366 221.306Z" fill="white"/>
<path d="M187.489 293.096L160 331.641L174.134 329.204L179.161 341.518L196.87 299.738L187.489 293.096Z" fill="#FF7171"/>
<path d="M209.513 293.096L237 331.641L222.868 329.204L217.841 341.518L200.132 299.738L209.513 293.096Z" fill="#FF7171"/>
<path d="M204.567 253.829C205.245 256.743 208.945 257.657 210.901 255.391C213.431 252.457 218.186 254.953 217.21 258.702C216.456 261.597 219.309 264.125 222.092 263.029C225.697 261.608 228.747 266.028 226.142 268.894C224.128 271.107 225.479 274.672 228.454 274.993C232.307 275.409 232.953 280.741 229.314 282.067C226.502 283.092 226.042 286.875 228.528 288.543C231.745 290.701 229.84 295.724 226 295.206C223.034 294.807 220.869 297.943 222.295 300.575C224.141 303.981 220.119 307.543 216.959 305.3C214.519 303.567 211.145 305.338 211.183 308.331C211.234 312.204 206.018 313.49 204.263 310.038C202.907 307.369 199.095 307.369 197.741 310.038C195.986 313.49 190.771 312.206 190.821 308.331C190.859 305.338 187.485 303.567 185.045 305.3C181.886 307.542 177.865 303.981 179.711 300.575C181.137 297.943 178.972 294.807 176.006 295.206C172.167 295.724 170.262 290.701 173.478 288.543C175.964 286.875 175.504 283.092 172.692 282.067C169.053 280.741 169.699 275.409 173.551 274.993C176.527 274.67 177.878 271.107 175.864 268.894C173.259 266.028 176.309 261.608 179.913 263.029C182.697 264.127 185.55 261.599 184.796 258.702C183.819 254.953 188.576 252.457 191.105 255.391C193.061 257.657 196.761 256.745 197.439 253.829C198.318 250.057 203.688 250.057 204.567 253.829Z" fill="#F5BB60"/>
<path d="M219.705 287.594C222.13 277.272 215.728 266.938 205.406 264.513C195.083 262.088 184.749 268.49 182.324 278.812C179.899 289.135 186.302 299.469 196.624 301.894C206.947 304.319 217.28 297.917 219.705 287.594Z" stroke="white" stroke-width="0.8804" stroke-miterlimit="10"/>
<path d="M323.298 241.209C318.892 236.505 331.088 218.835 337.615 211.092C343.318 204.328 349.179 197.375 356.377 198.255C362.696 199.028 368.845 205.692 369.213 212.079C370.204 229.262 329.56 247.895 323.298 241.209Z" fill="url(#paint12_linear_94_405)"/>
<path d="M376.192 422.788C377.021 423.462 377.173 425.145 377.273 426.245C377.318 426.737 377.34 426.983 377.285 427.156C376.884 428.423 374.428 428.556 370.577 428.949C364.491 429.571 362.68 430.05 362.203 429.145C361.757 428.296 362.837 426.906 362.959 426.753C363.613 425.929 364.415 425.629 365.967 425.119C368.839 424.174 370.779 423.656 371.366 423.499C375.034 422.52 375.647 422.345 376.192 422.788Z" fill="url(#paint13_linear_94_405)"/>
<path d="M372.573 417.228L371.964 424.163C372.137 424.498 374.198 425.502 375.836 424.641L377.401 417.824L372.573 417.228Z" fill="url(#paint14_linear_94_405)"/>
<path d="M327.925 421.896C328.919 422.994 329.145 425.015 328.281 426.011C327.431 426.99 326.154 426.255 322.531 426.364C318.65 426.48 317.637 427.396 315 426.668C313.934 426.374 312.053 425.66 312.088 424.899C312.113 424.364 313.071 424.088 316.271 423.016C320.813 421.494 320.793 421.411 321.757 421.251C324.179 420.85 326.612 420.447 327.925 421.896Z" fill="url(#paint15_linear_94_405)"/>
<path d="M325.439 415.567L323.492 422.042C323.639 422.389 325.618 423.548 327.316 422.814L330.207 416.53L325.439 415.567Z" fill="url(#paint16_linear_94_405)"/>
<path d="M342.733 273.764C342.454 295.523 340.969 319.989 337.406 346.57C333.885 372.841 328.95 396.578 323.567 417.452C326.051 418.12 328.534 418.788 331.017 419.456C337.318 413.581 345.266 404.333 349.101 391.264C351.481 383.153 350.688 378.985 352.198 369.008C354.601 353.123 359.471 344.8 364.504 331.991C369.026 320.48 374.372 303.587 377.239 281.006C365.737 278.592 354.235 276.178 342.733 273.764Z" fill="url(#paint17_linear_94_405)"/>
<path d="M365.149 271.687C366.669 299.362 367.919 327.551 368.867 356.24C369.578 377.768 370.1 399.023 370.447 419.998C372.983 420.311 375.52 420.625 378.057 420.938C380.508 416.374 383.764 409.397 385.994 400.454C388.703 389.593 388.076 383.143 389.264 371.886C390.597 359.261 392.533 356.51 395.962 340.583C402.923 308.261 406.404 292.099 398.639 282.046C396.118 278.782 388.216 270.595 365.149 271.687Z" fill="url(#paint18_linear_94_405)"/>
<path d="M402.12 202.134C396.179 200.464 387.472 198.51 376.81 197.908C361.601 197.048 353.997 196.618 348.609 200.24C336.163 208.604 345.799 227.91 340.704 275.767C339.977 282.601 339.814 289.484 339.287 296.337C338.414 307.683 338.216 308.299 339.005 309.449C343.956 316.658 362.426 305.784 389.498 310.082C404.645 312.488 411.515 318.029 415.665 314.032C420.505 309.371 416.353 296.835 412.78 286.043C408.678 273.656 406.144 273.496 403.816 264.167C401.382 254.416 402.854 249.395 403.233 234.018C403.414 226.661 403.376 215.711 402.12 202.134Z" fill="url(#paint19_linear_94_405)"/>
<g opacity="0.3">
<path d="M365.306 291.979C372.382 291.425 376.972 295.426 383.08 292.308C391.456 288.033 394.147 274.732 393.613 265.318C392.802 251.015 384.635 247.245 386.043 237.999C386.804 232.999 390.374 226.361 403.191 219.579C403.362 225.287 403.329 230.152 403.234 234.018C402.855 249.394 401.383 254.415 403.816 264.166C406.145 273.496 408.679 273.655 412.78 286.042C416.354 296.834 420.505 309.371 415.666 314.032C411.516 318.028 404.646 312.487 389.499 310.082C366.172 306.378 349.241 313.93 341.833 311.481C350.784 296.688 358.904 292.48 365.306 291.979Z" fill="url(#paint20_linear_94_405)"/>
</g>
<path d="M392.469 203.116C397.522 198.964 407.683 203.664 410.399 204.92C425.546 211.927 439.146 230.807 435.776 250.76C435.271 253.752 432.928 267.749 421.076 274.53C410.382 280.65 395.942 279.076 384.372 270.409C382.791 269.006 381.21 267.603 379.629 266.2C378.073 264.519 376.517 262.838 374.962 261.156C377.407 259.122 381.562 256.188 387.397 254.305C395.09 251.823 400.69 256.277 404.259 252.891C406.723 250.554 406.728 246.426 406.12 243.924C404.894 238.882 400.449 237.464 396.74 233.885C388.024 225.477 386.418 208.087 392.469 203.116Z" fill="url(#paint21_linear_94_405)"/>
<path d="M319.845 268.253L387.58 267.242L369.568 275.935L319.672 272.669L319.845 268.253Z" fill="url(#paint22_linear_94_405)"/>
<path d="M389.971 269.042V269.042C389.971 270.31 389.178 271.442 387.986 271.876L366.343 280.36L366.244 274.478L387.58 267.242C388.778 266.898 389.971 267.797 389.971 269.042Z" fill="url(#paint23_linear_94_405)"/>
<path d="M379.541 265.034C379.956 264.941 377.516 260.078 375.599 260.639C373.683 261.2 364.311 266.632 363.459 268.868C362.607 271.105 362.607 271.105 362.607 271.105C362.607 271.105 366.696 271.424 369.231 270.572C371.767 269.72 376.16 265.788 379.541 265.034Z" fill="url(#paint24_linear_94_405)"/>
<path d="M364.448 233.204L369.222 276.676C369.387 278.176 367.287 280.411 365.78 280.339L295.738 276.04C294.587 275.985 293.629 275.138 293.434 274.002L284.643 232.016C284.38 230.488 287.127 228.91 288.677 228.953L362.076 231.017C363.302 231.052 364.314 231.985 364.448 233.204Z" fill="url(#paint25_linear_94_405)"/>
<path d="M362.847 234.471L367.622 277.944C367.787 279.444 366.572 280.736 365.065 280.665L294.137 277.307C292.987 277.253 292.028 276.405 291.833 275.27L284.587 233.091C284.324 231.563 285.526 230.177 287.076 230.221L360.475 232.285C361.701 232.319 362.714 233.252 362.847 234.471Z" fill="url(#paint26_linear_94_405)"/>
<path opacity="0.3" d="M321.199 267.121C327.392 264.496 325.206 259.49 332.519 253.253C342.167 245.025 352.001 248.593 355.444 242.216C356.516 240.229 357.028 237.138 355.16 232.136L360.475 232.285C361.701 232.319 362.714 233.253 362.847 234.472L367.622 277.944C367.786 279.444 366.572 280.737 365.065 280.666L294.137 277.308C292.986 277.253 292.028 276.406 291.833 275.271L290.833 269.45C292.985 268.253 295.557 267.164 298.557 266.555C308.963 264.444 314.068 270.143 321.199 267.121Z" fill="url(#paint27_linear_94_405)"/>
<path d="M289.668 271.227C289.553 270.877 289.798 270.516 290.166 270.497C291.665 270.421 295.142 270.39 297.061 271.565C299.554 273.092 302.778 275.879 300.063 277.286L297.528 278.599C297.412 278.659 297.285 278.678 297.157 278.65C296.256 278.452 292.465 277.611 292.05 277.402C291.673 277.212 290.227 272.922 289.668 271.227Z" fill="url(#paint28_linear_94_405)"/>
<path d="M375.674 181.292C375.636 185.801 376.139 189.376 376.615 191.825C377.16 194.631 377.553 195.355 378.054 195.944C378.809 196.829 379.952 197.572 386.413 199.174C389.929 200.045 390.381 200.022 390.459 200.37C390.837 202.072 381.25 207.873 371.346 206.475C365.284 205.619 359.769 202.161 360.108 200.345C360.448 198.517 366.503 199.498 368.308 196.192C369.563 193.891 368.156 190.626 366.493 187.922C368.104 184.903 374.063 184.311 375.674 181.292Z" fill="url(#paint29_linear_94_405)"/>
<path d="M364.424 183.074C362.993 181.174 362.905 177.856 364.553 175.759C365.972 173.954 368.204 173.697 369.541 173.543C373.413 173.095 378.299 174.712 379.999 178.276C381.006 180.388 378.828 184.777 378.487 185.566C378.1 186.458 377.4 186.764 376.752 187.439C375.854 188.374 374.448 189.862 372.154 192.35C371.976 191.616 371.704 190.707 371.274 189.722C371.108 189.343 370.442 187.862 369.435 186.634C367.417 184.173 365.78 184.875 364.424 183.074Z" fill="url(#paint30_linear_94_405)"/>
<path d="M375.427 190.258C375.427 190.258 372.881 194.435 367.812 194.105C363.274 193.81 362.609 183.632 365.508 181.473C366.475 180.752 368.412 180.453 369.987 180.894C370.917 181.155 371.232 181.541 372.76 181.937C374.169 182.303 374.567 182.147 374.993 182.505C375.525 182.953 375.915 184.051 375.026 187.026C375.892 186.149 376.931 185.813 377.668 186.161C377.785 186.216 378.097 186.428 378.272 186.75C378.907 187.912 377.845 189.397 375.427 190.258Z" fill="url(#paint31_linear_94_405)"/>
<path d="M375.198 181.896C374.979 182.059 375.648 182.876 375.698 184.032C375.795 186.275 373.525 188.968 371.208 189.196C369.839 189.331 369.462 188.506 367.198 188.266C365.796 188.118 364.63 188.297 363.896 188.457C363.184 190.918 363.853 193.37 365.498 194.509C367.269 195.734 369.53 194.991 370.476 194.68C371.108 194.472 373.135 193.81 374.195 191.951C375.299 190.014 374.216 188.846 375.482 187.536C376.121 186.875 376.96 186.589 377.776 185.31C377.998 184.962 378.146 184.655 378.237 184.448C377.065 183.207 375.515 181.66 375.198 181.896Z" fill="url(#paint32_linear_94_405)"/>
<path d="M365.542 189.369C365.542 189.369 366.522 189.881 368.216 189.785C368.298 189.781 368.389 189.805 368.4 189.848C368.439 190.008 367.352 190.729 366.351 190.447C365.64 190.247 365.087 189.574 365.183 189.403C365.223 189.331 365.384 189.34 365.542 189.369Z" fill="url(#paint33_linear_94_405)"/>
<defs>
<linearGradient id="paint0_linear_94_405" x1="257.623" y1="234.708" x2="339.843" y2="305.423" gradientUnits="userSpaceOnUse">
<stop stop-color="#FF9085"/>
<stop offset="1" stop-color="#FB6FBB"/>
</linearGradient>
<linearGradient id="paint1_linear_94_405" x1="330.499" y1="262.786" x2="298.347" y2="349.087" gradientUnits="userSpaceOnUse">
<stop stop-color="#AA80F9"/>
<stop offset="0.9964" stop-color="#6165D7"/>
</linearGradient>
<linearGradient id="paint2_linear_94_405" x1="388.833" y1="159.234" x2="340.538" y2="145.568" gradientUnits="userSpaceOnUse">
<stop stop-color="#311944"/>
<stop offset="1" stop-color="#A03976"/>
</linearGradient>
<linearGradient id="paint3_linear_94_405" x1="388.706" y1="159.681" x2="340.41" y2="146.014" gradientUnits="userSpaceOnUse">
<stop stop-color="#311944"/>
<stop offset="1" stop-color="#A03976"/>
</linearGradient>
<linearGradient id="paint4_linear_94_405" x1="339.272" y1="128.714" x2="340.027" y2="189.701" gradientUnits="userSpaceOnUse">
<stop stop-color="#FF9085"/>
<stop offset="1" stop-color="#FB6FBB"/>
</linearGradient>
<linearGradient id="paint5_linear_94_405" x1="383.253" y1="130.97" x2="288.648" y2="104.199" gradientUnits="userSpaceOnUse">
<stop stop-color="#311944"/>
<stop offset="1" stop-color="#A03976"/>
</linearGradient>
<linearGradient id="paint6_linear_94_405" x1="383.005" y1="131.846" x2="288.399" y2="105.075" gradientUnits="userSpaceOnUse">
<stop stop-color="#311944"/>
<stop offset="1" stop-color="#A03976"/>
</linearGradient>
<linearGradient id="paint7_linear_94_405" x1="286.169" y1="71.1845" x2="287.648" y2="190.65" gradientUnits="userSpaceOnUse">
<stop stop-color="#FF9085"/>
<stop offset="1" stop-color="#FB6FBB"/>
</linearGradient>
<linearGradient id="paint8_linear_94_405" x1="157.892" y1="389.169" x2="516.89" y2="389.169" gradientUnits="userSpaceOnUse">
<stop offset="0.494" stop-color="#EBEFF2"/>
<stop offset="1" stop-color="white"/>
</linearGradient>
<linearGradient id="paint9_linear_94_405" x1="92.4473" y1="243.156" x2="296.086" y2="243.156" gradientUnits="userSpaceOnUse">
<stop offset="0.0036" stop-color="#E38DDD"/>
<stop offset="1" stop-color="#9571F6"/>
</linearGradient>
<linearGradient id="paint10_linear_94_405" x1="195.349" y1="115.959" x2="177.956" y2="273.164" gradientUnits="userSpaceOnUse">
<stop stop-color="#40447E"/>
<stop offset="0.9964" stop-color="#3C3B6B"/>
</linearGradient>
<linearGradient id="paint11_linear_94_405" x1="130.379" y1="289.377" x2="265.659" y2="289.377" gradientUnits="userSpaceOnUse">
<stop stop-color="#FF9085"/>
<stop offset="1" stop-color="#FB6FBB"/>
</linearGradient>
<linearGradient id="paint12_linear_94_405" x1="343.93" y1="234.604" x2="300.151" y2="444.558" gradientUnits="userSpaceOnUse">
<stop stop-color="#FFC444"/>
<stop offset="0.9964" stop-color="#F36F56"/>
</linearGradient>
<linearGradient id="paint13_linear_94_405" x1="362.176" y1="425.89" x2="377.334" y2="426.328" gradientUnits="userSpaceOnUse">
<stop stop-color="#444B8C"/>
<stop offset="0.9964" stop-color="#26264F"/>
</linearGradient>
<linearGradient id="paint14_linear_94_405" x1="371.964" y1="421.105" x2="377.401" y2="421.105" gradientUnits="userSpaceOnUse">
<stop stop-color="#FFC444"/>
<stop offset="0.9964" stop-color="#F36F56"/>
</linearGradient>
<linearGradient id="paint15_linear_94_405" x1="312.953" y1="421.715" x2="328.487" y2="425.987" gradientUnits="userSpaceOnUse">
<stop stop-color="#444B8C"/>
<stop offset="0.9964" stop-color="#26264F"/>
</linearGradient>
<linearGradient id="paint16_linear_94_405" x1="323.492" y1="419.31" x2="330.207" y2="419.31" gradientUnits="userSpaceOnUse">
<stop stop-color="#FFC444"/>
<stop offset="0.9964" stop-color="#F36F56"/>
</linearGradient>
<linearGradient id="paint17_linear_94_405" x1="318.245" y1="395.491" x2="361.217" y2="298.621" gradientUnits="userSpaceOnUse">
<stop stop-color="#40447E"/>
<stop offset="0.9964" stop-color="#3C3B6B"/>
</linearGradient>
<linearGradient id="paint18_linear_94_405" x1="339.349" y1="400.08" x2="393.865" y2="309.203" gradientUnits="userSpaceOnUse">
<stop stop-color="#40447E"/>
<stop offset="0.9964" stop-color="#3C3B6B"/>
</linearGradient>
<linearGradient id="paint19_linear_94_405" x1="383.68" y1="242.893" x2="339.901" y2="452.846" gradientUnits="userSpaceOnUse">
<stop stop-color="#FFC444"/>
<stop offset="0.9964" stop-color="#F36F56"/>
</linearGradient>
<linearGradient id="paint20_linear_94_405" x1="395.68" y1="375.58" x2="376.463" y2="284.297" gradientUnits="userSpaceOnUse">
<stop stop-color="#FFC444"/>
<stop offset="0.9964" stop-color="#F36F56"/>
</linearGradient>
<linearGradient id="paint21_linear_94_405" x1="412.064" y1="223.963" x2="377.434" y2="390.04" gradientUnits="userSpaceOnUse">
<stop stop-color="#FFC444"/>
<stop offset="0.9964" stop-color="#F36F56"/>
</linearGradient>
<linearGradient id="paint22_linear_94_405" x1="343.651" y1="296.257" x2="351.845" y2="273.041" gradientUnits="userSpaceOnUse">
<stop stop-color="#311944"/>
<stop offset="1" stop-color="#893976"/>
</linearGradient>
<linearGradient id="paint23_linear_94_405" x1="379.446" y1="262.62" x2="376.442" y2="283.378" gradientUnits="userSpaceOnUse">
<stop stop-color="#311944"/>
<stop offset="1" stop-color="#893976"/>
</linearGradient>
<linearGradient id="paint24_linear_94_405" x1="362.607" y1="265.879" x2="379.588" y2="265.879" gradientUnits="userSpaceOnUse">
<stop stop-color="#FFC444"/>
<stop offset="0.9964" stop-color="#F36F56"/>
</linearGradient>
<linearGradient id="paint25_linear_94_405" x1="319.916" y1="264.438" x2="335.891" y2="241.753" gradientUnits="userSpaceOnUse">
<stop stop-color="#444B8C"/>
<stop offset="0.9964" stop-color="#26264F"/>
</linearGradient>
<linearGradient id="paint26_linear_94_405" x1="350.559" y1="301.98" x2="315.598" y2="230.967" gradientUnits="userSpaceOnUse">
<stop stop-color="#311944"/>
<stop offset="1" stop-color="#893976"/>
</linearGradient>
<linearGradient id="paint27_linear_94_405" x1="367.637" y1="256.402" x2="290.833" y2="256.402" gradientUnits="userSpaceOnUse">
<stop stop-color="#311944"/>
<stop offset="1" stop-color="#893976"/>
</linearGradient>
<linearGradient id="paint28_linear_94_405" x1="289.64" y1="274.564" x2="301.095" y2="274.564" gradientUnits="userSpaceOnUse">
<stop stop-color="#FFC444"/>
<stop offset="0.9964" stop-color="#F36F56"/>
</linearGradient>
<linearGradient id="paint29_linear_94_405" x1="376.408" y1="181.335" x2="373.479" y2="231.126" gradientUnits="userSpaceOnUse">
<stop stop-color="#FFC444"/>
<stop offset="0.9964" stop-color="#F36F56"/>
</linearGradient>
<linearGradient id="paint30_linear_94_405" x1="381.284" y1="204.21" x2="369.924" y2="175.041" gradientUnits="userSpaceOnUse">
<stop stop-color="#311944"/>
<stop offset="1" stop-color="#6B3976"/>
</linearGradient>
<linearGradient id="paint31_linear_94_405" x1="363.76" y1="187.405" x2="378.452" y2="187.405" gradientUnits="userSpaceOnUse">
<stop stop-color="#FFC444"/>
<stop offset="0.9964" stop-color="#F36F56"/>
</linearGradient>
<linearGradient id="paint32_linear_94_405" x1="377.776" y1="205.592" x2="366.404" y2="176.394" gradientUnits="userSpaceOnUse">
<stop stop-color="#311944"/>
<stop offset="1" stop-color="#6B3976"/>
</linearGradient>
<linearGradient id="paint33_linear_94_405" x1="365.172" y1="189.93" x2="368.401" y2="189.93" gradientUnits="userSpaceOnUse">
<stop stop-color="#FFC444"/>
<stop offset="0.9964" stop-color="#F36F56"/>
</linearGradient>
</defs>
</svg>
